<svg xmlns="http://www.w3.org/2000/svg" viewBox="0 0 189.07 98.06"><path d="M180.96 94.6c4.84-4.48 8.16-10.82 7.53-17.38s-4.36-12.29-10.25-15.26c1.53-5.48 1.8-11.39.23-16.85s-5.09-10.46-10.01-13.32-11.17-4.09-16.3-1.64c-.95-10.24-7.77-19.46-16.73-24.5S115.63-.5 105.5 1.32C97.37 2.78 89.52 6.1 83.1 11.3S72 23.43 69.81 31.39c-7.62-1.3-15.79 1.13-21.47 6.38-5.67 5.25-8.64 12.73-7.93 20.43-6.63-2.27-14.46-.57-19.56 4.24s-7.55 12.47-5.67 19.23c-3.36-.2-6.77.88-9.42 2.96a14.1 14.1 0 0 0-5.09 8.46c-.27 1.5-.28 3.1.36 4.49h175.64s1.94-.79 4.29-2.96Z" style="fill:#fef8f8;stroke:#1b162a;stroke-linecap:round;stroke-linejoin:round"/></svg>