<?xml version="1.0" encoding="UTF-8"?><svg id="b" xmlns="http://www.w3.org/2000/svg" viewBox="0 0 194.81 118.72"><g id="c"><path d="M194.2,108.75c.77-11.6-2.62-17.29-8.09-23.95-5.47-6.65-14.53-9.94-23.04-11.29,6.03-8.77,5.64-21.44-.93-29.81-6.56-8.38-17.68-11.77-27.64-8.01,2.3-7.89-.44-16.73-5.9-22.87-5.46-6.14-13.32-9.79-21.38-11.38-10.45-2.07-21.72-.81-30.94,4.51-9.23,5.32-14.6,14.51-15.72,25.11-6.13-1.99-12.73-2.56-19.11-1.63-13.76,2-26.4,11.48-31.41,24.45-5.02,12.97-2.27,28.87,7.95,38.3-6.06.03-12,3.44-15.09,8.65-3.09,5.22-3.22,12.06-.33,17.39h188.24s2.77-.29,3.38-9.48Z" style="fill:#fef8f8; stroke:#1b162a; stroke-linecap:round; stroke-linejoin:round;"/></g></svg>