<?xml version="1.0" encoding="UTF-8"?><svg id="b" xmlns="http://www.w3.org/2000/svg" viewBox="0 0 189.07 98.06"><g id="c"><path d="M180.96,94.6c4.84-4.48,8.16-10.82,7.53-17.38-.63-6.56-4.36-12.29-10.25-15.26,1.53-5.48,1.8-11.39.23-16.85s-5.09-10.46-10.01-13.32c-4.92-2.86-11.17-4.09-16.3-1.64-.95-10.24-7.77-19.46-16.73-24.5S115.63-.5,105.5,1.32c-8.13,1.46-15.98,4.78-22.4,9.98s-11.1,12.13-13.29,20.09c-7.62-1.3-15.79,1.13-21.47,6.38-5.67,5.25-8.64,12.73-7.93,20.43-6.63-2.27-14.46-.57-19.56,4.24-5.1,4.81-7.55,12.47-5.67,19.23-3.36-.2-6.77.88-9.42,2.96-2.64,2.08-4.49,5.15-5.09,8.46-.27,1.5-.28,3.1.36,4.49h175.64s1.94-.79,4.29-2.96Z" style="fill:#fef8f8; stroke:#1b162a; stroke-linecap:round; stroke-linejoin:round;"/></g></svg>