<?xml version="1.0" encoding="UTF-8"?><svg id="b" xmlns="http://www.w3.org/2000/svg" viewBox="0 0 101.35 81.44"><g id="c"><path d="M100.85,18.67v62.27H.5c.08-2.75.76-5.46,1.93-7.94,1.39-2.95,3.47-5.56,6.07-7.51,2.17-1.62,4.68-2.77,7.31-3.41,3.2-.76,6.58-.76,9.76.08-3.5-5.65-3.4-13.4-.02-19.12.01-.02.03-.05.04-.07,3.43-5.73,10.18-9.29,16.84-8.89-2.32-5.83-1.2-12.31,1.72-17.87.32-.59.65-1.18,1-1.75.29-.47.6-.94.93-1.39,3.67-5.21,9.26-8.97,15.34-10.97,3.55-1.16,7.34-1.72,11.08-1.58,4.09.16,8.11,1.16,11.69,3.14,2.95,1.64,5.53,3.99,7.46,6.76.59.85,1.12,1.73,1.58,2.65,1.54,3.05,2.34,6.43,2.1,9.85,1.57-1.72,3.45-3.15,5.52-4.25Z" style="fill:#fef8f8; stroke:#1b162a; stroke-linecap:round; stroke-linejoin:round;"/></g></svg>