<svg xmlns="http://www.w3.org/2000/svg" viewBox="0 0 54.89 52.93"><path d="M54.34 51.92c-.01.18-.02.35-.04.51H.5V2.04C3.38.84 6.55.37 9.69.53c1.12.06 2.24.21 3.34.42 3.83.76 7.56 2.49 10.15 5.41 2.6 2.91 3.9 7.11 2.81 10.86.94-.36 1.9-.58 2.86-.67 3.88-.38 7.77 1.29 10.26 4.47.36.45.68.94.95 1.44 2.17 3.89 2.03 9.04-.51 12.72 4.04.65 8.35 2.21 10.95 5.37.75.91 1.41 1.78 1.97 2.69 1.39 2.25 2.13 4.75 1.87 8.68" style="fill:#fef8f8;stroke:#1b162a;stroke-linecap:round;stroke-linejoin:round"/></svg>