<?xml version="1.0" encoding="UTF-8"?><svg id="b" xmlns="http://www.w3.org/2000/svg" viewBox="0 0 176.07 81.89"><g id="c"><path d="M175.57,81.39H3.36c-1.24-2.92-2.09-6.02-2.51-9.19-.85-6.13-.16-12.52,2.09-18.32.32-.84.68-1.66,1.06-2.46,3.13-6.56,8.24-12.09,14.4-16.01,4.83-3.07,10.29-5.16,15.95-5.98,4.1-.6,8.3-.58,12.4.04,2.28.35,4.52.88,6.71,1.59.36-3.37,1.14-6.6,2.34-9.6,2.58-6.45,7.08-11.88,13.38-15.51,1.89-1.09,3.88-2.01,5.92-2.76,7.9-2.94,16.72-3.39,25.02-1.75,1.11.22,2.22.48,3.32.79,6.86,1.85,13.35,5.3,18.06,10.59,2.24,2.51,4.02,5.47,5.18,8.64,1.68,4.57,2.08,9.56.72,14.22,1.45-.55,2.91-.94,4.39-1.19,8.7-1.47,17.64,2.04,23.25,9.2,1.81,2.31,3.15,4.94,4.01,7.73.57,1.8.93,3.68,1.09,5.57.13,1.5.14,3.02,0,4.53-.31,3.76-1.42,7.44-3.35,10.68-.25.44-.53.88-.82,1.3,1.38.22,2.77.49,4.17.83,5.57,1.3,11.1,3.53,15.43,7.06Z" style="fill:#fef8f8; stroke:#1b162a; stroke-linecap:round; stroke-linejoin:round;"/></g></svg>