<svg width="297" height="249" viewBox="0 0 297 249" fill="none" xmlns="http://www.w3.org/2000/svg"><path d="M158.875 238.137c71.007 0 128.57-30.118 128.57-67.27s-57.563-67.27-128.57-67.27-128.57 30.118-128.57 67.27 57.563 67.27 128.57 67.27" fill="#1B162A"/><path d="m143.435 105.077 21.59-9.34-17.46-49.18 46.94-13.66 20.71 55.2s10.5 30.12-14.1 41.26-55.76 22.83-55.76 22.83-11.6-5.03-12.89-18.05c-1.28-13.02 10.98-29.07 10.98-29.07z" fill="#FCDCF2" stroke="#1A162B" stroke-linecap="round" stroke-linejoin="round"/><path d="M165.025 95.737s3.98-2 9.26 2.4" stroke="#1A162B" stroke-linecap="round" stroke-linejoin="round"/><path d="M193.585 95.757v-.25c0-.07-.01-.13-.04-.19a.34.34 0 0 0-.1-.16.4.4 0 0 0-.16-.1.3.3 0 0 0-.19-.04.5.5 0 0 0-.35.15c-.03.03-.05.07-.08.1-.05.08-.07.16-.07.25v.25c0 .07.01.13.04.19.02.06.05.12.1.16.05.05.1.08.16.1.06.03.12.05.19.04a.5.5 0 0 0 .35-.15c.03-.03.05-.07.08-.1.05-.08.07-.16.07-.25m-11.26-7.51v-.25c0-.07-.01-.13-.04-.19a.34.34 0 0 0-.1-.16.4.4 0 0 0-.16-.1.3.3 0 0 0-.19-.04.5.5 0 0 0-.35.15c-.03.03-.05.07-.08.1-.05.08-.07.16-.07.25v.25c0 .07.01.13.04.19.02.06.05.12.1.16.05.05.1.08.16.1.06.03.12.05.19.04a.5.5 0 0 0 .35-.15c.03-.03.05-.07.08-.1.05-.08.07-.16.07-.25m12.01-7.51h.14c.64 0 .64-1 0-1h-.14c-.64 0-.64 1 0 1h.14c.64 0 .64-1 0-1h-.14c-.64 0-.64 1 0 1" fill="#1A162B"/><path d="M161.225 85.047s22.5-17.12 47.75-13.56l-7.22-18.9-7.26-19.7-46.94 13.66 5.72 16.69 7.95 21.8z" fill="#fff" stroke="#1A162B" stroke-linecap="round" stroke-linejoin="round"/><path d="m169.595 79.947-12.22-36.02m22.16 31.6-10.79-34.91m20.52 32.1-11.62-34.69m21.44 33.43-12.36-36.07" stroke="#1A162B" stroke-linecap="round" stroke-linejoin="round"/><path d="M212.425 35.797c-2.2-1.39-4.49-2.62-6.85-3.69 2.37 1.06 4.66 2.3 6.85 3.69 1.03-1.39 2.02-2.94 2.87-4.62a48 48 0 0 0-6.8-3.45c2.35.96 4.63 2.12 6.8 3.45 3-5.91 4.34-13.44.06-21.17-1.18 2.13-2.87 4.57-5.26 7.28-8.97 10.14-35.1 22.62-49.72 25.55-2.03.41-3.87.72-5.55.96.09.69.13 1.39.15 2.08.06 2.21-.06 4.53-1.17 6.44-1.47 2.54-4.42 3.85-7.38 4.17 3.29 4.22 6.86 6.77 6.86 6.77s6.41-5.87 21-10.65 27.48 0 27.48 0 .25-3.69 3.38-8.33c.88-1.3 1.98-2.67 3.38-4.06-2.05-1.33-4.2-2.5-6.44-3.49 2.24.98 4.39 2.16 6.44 3.49.12-.12.23-.24.36-.35 1.15-1.11 2.38-2.48 3.55-4.06z" fill="#EA130D"/><path d="M212.425 35.797c-2.2-1.39-4.49-2.62-6.85-3.69 2.37 1.06 4.66 2.3 6.85 3.69m0 0c1.03-1.39 2.02-2.94 2.87-4.62m-2.87 4.62.01.01c-1.17 1.58-2.4 2.95-3.55 4.06-.13.11-.24.23-.36.35m6.77-9.04a48 48 0 0 0-6.8-3.45c2.35.96 4.63 2.12 6.8 3.45m0 0c3-5.91 4.34-13.44.06-21.17-1.18 2.13-2.87 4.57-5.26 7.28-8.97 10.14-35.1 22.62-49.72 25.55-2.03.41-3.87.72-5.55.96.09.69.13 1.39.15 2.08.06 2.21-.06 4.53-1.17 6.44-1.47 2.54-4.42 3.85-7.38 4.17 3.29 4.22 6.86 6.77 6.86 6.77s6.41-5.87 21-10.65 27.48 0 27.48 0 .25-3.69 3.38-8.33c.88-1.3 1.98-2.67 3.38-4.06m0 0c-2.05-1.33-4.2-2.5-6.44-3.49 2.24.98 4.39 2.16 6.44 3.49" stroke="#1A162B" stroke-linecap="round" stroke-linejoin="round"/><path d="M153.795 52.307c1.11-1.91 1.23-4.23 1.17-6.44-.02-.69-.06-1.39-.15-2.08-10.44 1.49-14.41.14-14.41.14.76 2.65 1.75 5.47 2.99 7.88.89 1.72 1.94 3.29 3.02 4.67 2.96-.32 5.9-1.63 7.38-4.17" fill="#EA130D" stroke="#1A162B" stroke-linecap="round" stroke-linejoin="round"/><path d="M154.815 43.787c-.13-1.07-.39-2.11-.87-3.06.49.95.74 2 .87 3.06 1.68-.24 3.53-.55 5.55-.96 14.62-2.93 40.75-15.41 49.72-25.55 2.4-2.71 4.08-5.15 5.26-7.28-1.21-2.19-2.88-4.4-5.08-6.59l-71.9 31.22s.62 4.34 2.03 9.29c0 0 3.97 1.35 14.41-.14z" fill="#FFABDF"/><path d="M154.815 43.787c-.13-1.07-.39-2.11-.87-3.06.49.95.74 2 .87 3.06m0 0c1.68-.24 3.53-.55 5.55-.96 14.62-2.93 40.75-15.41 49.72-25.55 2.4-2.71 4.08-5.15 5.26-7.28-1.21-2.19-2.88-4.4-5.08-6.59l-71.9 31.22s.62 4.34 2.03 9.29c0 0 3.97 1.35 14.41-.14z" stroke="#1A162B" stroke-linecap="round" stroke-linejoin="round"/><path d="M210.275 3.417c2.2 5.01-12.12 16.16-32 24.91s-37.78 11.78-39.98 6.77 12.12-16.16 32-24.91 37.78-11.78 39.98-6.77" fill="#FFABDF" stroke="#1A162B" stroke-linecap="round" stroke-linejoin="round"/><path d="M142.075 27.447c-.29.29-.56.57-.83.85 6.39 1.46 15.62 3.61 23.08 5.36.6-.19 1.21-.39 1.82-.6-3.57-.84-8.14-1.91-12.71-2.97-4.88-1.14-8.57-1.99-11.36-2.63zm10.06-7.69c-.4.26-.8.51-1.18.77 7.5 1.7 20.85 4.82 29.47 6.84.49-.23.99-.45 1.47-.68-3.62-.85-10.16-2.38-16.72-3.91-5.93-1.38-10.09-2.35-13.03-3.02zm11.2-6.31-1.41.72c7.61 1.72 21.72 5.02 30.42 7.06.42-.24.84-.49 1.25-.73-3.52-.83-10.32-2.42-17.13-4.01-6-1.39-10.18-2.37-13.13-3.04m13.29-5.89c-.55.21-1.1.43-1.66.65 7.8 1.78 19.63 4.55 27.42 6.38.34-.27.68-.53 1-.79-3.66-.86-10.08-2.37-16.51-3.86-4.26-.99-7.61-1.77-10.25-2.38m19.47-3.79c-1.61-.37-3.07-.71-4.43-1.03-.69.17-1.4.35-2.11.54 6.33 1.46 13.78 3.2 19.67 4.58.2-.31.39-.61.55-.9-3.69-.87-8.68-2.03-13.67-3.19z" fill="#1A162B"/><path d="m145.845 128.947 44.65-14.49 24.79-40.2s28.71 3.11 43.8 20.92l-20.9 40.85s-4.32 13.46-26.05 22.26c-21.73 8.81-90.38 33.1-90.38 33.1s-5.26-8.52.07-24.42 24.02-38.02 24.02-38.02" fill="#FCDCF2" stroke="#1A162B" stroke-linecap="round" stroke-linejoin="round"/><path d="M190.495 114.457s3.43-.17 7.02 5.81" stroke="#1A162B" stroke-linecap="round" stroke-linejoin="round"/><path d="M196.845 155.577c.64 0 .64-1 0-1s-.64 1 0 1m-3.51-12.01c.64 0 .64-1 0-1s-.64 1 0 1m16.77 6.26v.25c0 .07.01.13.04.19.02.06.05.12.1.16.05.05.1.08.16.1.06.03.12.05.19.04a.5.5 0 0 0 .35-.15c.03-.03.05-.07.08-.1.05-.08.07-.16.07-.25v-.25c0-.07-.01-.13-.04-.19a.34.34 0 0 0-.1-.16.4.4 0 0 0-.16-.1.3.3 0 0 0-.19-.04.5.5 0 0 0-.35.15c-.03.03-.05.07-.08.1-.05.08-.07.16-.07.25m-4.75-10.77h.25c.07 0 .13-.01.19-.04.06-.02.12-.05.16-.1.05-.05.08-.1.1-.16.03-.06.05-.12.04-.19a.5.5 0 0 0-.15-.35c-.03-.03-.07-.05-.1-.08a.45.45 0 0 0-.25-.07h-.25c-.07 0-.13.01-.19.04-.06.02-.12.05-.16.1-.05.05-.08.1-.1.16-.03.06-.05.12-.04.19a.5.5 0 0 0 .15.35c.03.03.07.05.1.08.08.05.16.07.25.07m21.02.25c.64 0 .64-1 0-1s-.64 1 0 1m-11.51-15.27h.14c.64 0 .64-1 0-1h-.14c-.64 0-.64 1 0 1h.14c.64 0 .64-1 0-1h-.14c-.64 0-.64 1 0 1m-17.12 5.61.25.25c.05.05.1.08.16.1.06.03.12.05.19.04.07 0 .13-.01.19-.04.06-.02.12-.05.16-.1.03-.03.05-.07.08-.1a.45.45 0 0 0 .05-.38.5.5 0 0 0-.13-.22l-.25-.25a.4.4 0 0 0-.16-.1.3.3 0 0 0-.19-.04c-.07 0-.13.01-.19.04-.06.02-.12.05-.16.1-.03.03-.05.07-.08.1a.45.45 0 0 0-.05.38c.02.08.07.16.13.22" fill="#1A162B"/><path d="M194.435 108.067c-.28.45 27.66.87 43.75 27.96l11.81-23.09s3.53-18.86-15.76-25.21-27.6.56-27.6.56z" fill="#fff" stroke="#1A162B" stroke-linecap="round" stroke-linejoin="round"/><path d="m204.215 110.057 21.11-33.84m-11.65 37.36 20.2-34.04m-10.72 39.72 19.93-36.39m-11.81 43.75 20.75-38.12" stroke="#1A162B" stroke-linecap="round" stroke-linejoin="round"/><path d="M206.635 88.287s29.41 1 43.36 24.65c0 0 6.48-4.1 13.96-1.13s19.64 7.64 28.06-7.01 3.12-26.55-18.7-38.68-36.84-18.21-44.89-14c-17.9 9.36-21.78 36.17-21.78 36.17z" fill="#EA130D" stroke="#1A162B" stroke-linecap="round" stroke-linejoin="round"/><path d="M258.315 99.747c-.19 1.88-.6 3.84-.41 5.73.19 1.91 1.1 3.65 1.98 5.32.3.57 1.16.06.86-.5-.82-1.56-1.73-3.22-1.86-5.01-.13-1.83.25-3.71.43-5.53.06-.64-.94-.64-1 0zm7.62 1.28c-.06 2.17-.1 4.36.3 6.5.4 2.15 1.24 4.18 2.08 6.18.24.59 1.21.33.96-.27-.82-1.96-1.65-3.95-2.05-6.04-.41-2.1-.35-4.26-.29-6.38.02-.64-.98-.64-1 0zm8.08-.18c.05 2.39.1 4.82.6 7.17s1.49 4.55 2.54 6.69c.28.58 1.15.07.86-.5-1.01-2.07-1.96-4.19-2.44-6.45s-.51-4.6-.56-6.9c-.01-.64-1.01-.64-1 0zm7.65-.18c.06 2.04.04 4.18.65 6.15s1.83 3.72 2.94 5.43c.35.54 1.22.04.86-.5-1.06-1.63-2.26-3.31-2.84-5.19-.58-1.89-.56-3.93-.61-5.89-.02-.64-1.02-.64-1 0m-68.24-32.59c1.73 1.3 3.7 2.19 5.85 2.48 2.08.28 4.18.03 6.22-.42 2.14-.47 4.25-1.09 6.21-2.07 1.91-.96 3.66-2.22 5.2-3.69 1.73-1.65 3.19-3.59 4.32-5.7.3-.57-.56-1.07-.86-.5-1.91 3.57-4.79 6.6-8.32 8.59-1.8 1.01-3.72 1.66-5.72 2.16-1.98.5-4.01.86-6.06.74-2.34-.14-4.47-1.04-6.34-2.44-.51-.39-1.01.48-.5.86z" fill="#1A162B"/><path d="M243.115 59.857c-11.31-4.77-18.74-3.73-21.11-3.19-12.45 11.46-15.37 31.62-15.37 31.62s29.41 1 43.36 24.65c0 0 6.48-4.1 13.96-1.13s19.64 7.64 28.06-7.01c1.11-1.93 1.98-3.81 2.6-5.65-1.29-2.3-5.95-10.19-12.85-17.26-8.19-8.39-24.77-16.19-38.65-22.04z" stroke="#1A162B" stroke-linecap="round" stroke-linejoin="round"/><path d="M273.305 66.117c-21.82-12.13-36.84-18.21-44.89-14-2.38 1.24-4.5 2.8-6.41 4.55 2.37-.55 9.8-1.58 21.11 3.19 13.88 5.85 30.46 13.65 38.65 22.04 6.9 7.07 11.56 14.95 12.85 17.26 4.13-12.14-2.36-22.5-21.31-33.03zm-233.76 60.49s-23.57-5.24-33.79 3.14-3.14 44.53 13.36 44.27 30.39-16.24 30.39-16.24l-9.95-31.17z" fill="#FFABDF" stroke="#1A162B" stroke-linecap="round" stroke-linejoin="round"/><path d="M36.715 133.977s-16.02-3.56-22.96 2.14c-6.94 5.69-2.14 30.25 9.08 30.08 11.21-.18 20.64-11.03 20.64-11.03l-6.76-21.18z" stroke="#1A162B" stroke-linecap="round" stroke-linejoin="round"/><path d="M20.555 147.727c4.89-.66 9.79-1.32 14.69-1.97.63-.09.36-1.05-.27-.96-4.9.66-9.79 1.32-14.69 1.97-.63.09-.36 1.05.27.96" fill="#1A162B"/><path d="M119.775 81.717s14.99-18.94 11.89-31.79c-3.09-12.85-38.71-22.23-45.67-7.26-6.95 14.97 1.38 34.43 1.38 34.43l32.39 4.62z" fill="#FFABDF" stroke="#1A162B" stroke-linecap="round" stroke-linejoin="round"/><path d="M115.565 75.907s10.18-12.87 8.08-21.6-26.3-15.1-31.03-4.93c-4.72 10.17.94 23.39.94 23.39z" stroke="#1A162B" stroke-linecap="round" stroke-linejoin="round"/><path d="M103.045 54.827c.15 5.04.04 10.08-.33 15.11-.05.64.95.64 1 0 .36-5.03.47-10.07.33-15.11-.02-.64-1.02-.64-1 0m7.19.5c-1.54 4.69-3.08 9.39-4.62 14.08-.2.61.76.88.96.27 1.54-4.69 3.08-9.39 4.62-14.08.2-.61-.76-.88-.96-.27" fill="#1A162B"/><path d="M155.505 139.917s24 2.67 30.96 13.9c6.96 11.24-11.42 43.15-26.96 37.57-15.53-5.58-23.5-25.19-23.5-25.19z" fill="#FFABDF" stroke="#1A162B" stroke-linecap="round" stroke-linejoin="round"/><path d="M156.675 146.997s16.31 1.81 21.03 9.44c4.73 7.63-7.76 29.32-18.31 25.53s-15.97-17.12-15.97-17.12z" stroke="#1A162B" stroke-linecap="round" stroke-linejoin="round"/><path d="M167.635 165.547c-4.48-2.26-8.36-5.51-12.84-7.77-.57-.29-1.08.57-.5.86 4.48 2.26 8.36 5.51 12.84 7.77.57.29 1.08-.57.5-.86" fill="#1A162B"/><path d="M38.355 125.417s-21.49-1.53-30.91-9.31c-12.84-10.6 2.36-36.67 15.45-41.12 13.1-4.45 29.34 16.38 33.27 21.88s-17.81 28.55-17.81 28.55" fill="#FFABDF" stroke="#1A162B" stroke-linecap="round" stroke-linejoin="round"/><path d="M36.885 118.617s-14.83-1.06-21.33-6.42c-8.86-7.31 1.63-25.3 10.66-28.38 9.04-3.07 20.24 11.3 22.95 15.1s-12.29 19.7-12.29 19.7z" stroke="#1A162B" stroke-linecap="round" stroke-linejoin="round"/><path d="M20.155 105.257c6.77.53 13.48 1.76 20 3.67.62.18.88-.78.27-.96-6.61-1.93-13.4-3.17-20.26-3.71-.64-.05-.64.95 0 1zm5.76-11.65c4.52 4.65 9.49 8.85 14.83 12.53.53.37 1.03-.5.5-.86a97.7 97.7 0 0 1-14.63-12.38c-.45-.46-1.16.24-.71.71z" fill="#1A162B"/><path d="M146.065 103.157s20.71-5.94 28.32-15.49c10.37-13.02-9.87-35.4-23.61-37.05-13.73-1.65-25.33 22.08-28.04 28.28-2.71 6.19 23.32 24.26 23.32 24.26z" fill="#FFABDF" stroke="#1A162B" stroke-linecap="round" stroke-linejoin="round"/><path d="M146.105 96.197s14.29-4.1 19.54-10.69c7.16-8.98-6.81-24.42-16.29-25.56s-17.47 15.24-19.34 19.51 16.09 16.74 16.09 16.74" stroke="#1A162B" stroke-linecap="round" stroke-linejoin="round"/><path d="M159.475 78.697a100 100 0 0 0-19.05 7.81c-.57.3-.06 1.17.5.86 5.99-3.22 12.29-5.8 18.82-7.71.62-.18.35-1.15-.27-.96m-8.65-9.76a98.4 98.4 0 0 1-11.76 15.12c-.44.47.26 1.18.71.71 4.46-4.71 8.46-9.84 11.92-15.33.34-.55-.52-1.05-.86-.5z" fill="#1A162B"/><path d="M85.835 77.397s-1.33-25.22-11.74-33.36-42.85 7.73-38.99 23.78 22.48 26.1 22.48 26.1l28.24-16.52z" fill="#FFABDF" stroke="#1A162B" stroke-linecap="round" stroke-linejoin="round"/><path d="M77.995 74.507s-.9-17.07-7.94-22.57c-7.04-5.51-28.99 5.23-26.38 16.09s15.21 17.66 15.21 17.66z" stroke="#1A162B" stroke-linecap="round" stroke-linejoin="round"/><path d="M55.655 67.007c3.5 3.45 6.74 7.16 9.67 11.11.38.51 1.25.01.86-.5-2.98-4.02-6.27-7.8-9.83-11.31-.46-.45-1.17.25-.71.71zm6.88-7.12c2.08 6.12 4.15 12.24 6.23 18.36.21.61 1.17.35.96-.27-2.08-6.12-4.15-12.24-6.23-18.36-.21-.61-1.17-.35-.96.27" fill="#1A162B"/><path d="M143.425 104.757s26.23-13.68 38.67-9.24c12.45 4.44 16.39 40.34.76 45.66-15.62 5.32-34.08-5.03-34.08-5.03z" fill="#FFABDF" stroke="#1A162B" stroke-linecap="round" stroke-linejoin="round"/><path d="M154.265 108.507s14.9-8.37 23.32-5.36 11.09 27.29.52 30.89-23.06-3.41-23.06-3.41l-.78-22.13z" stroke="#1A162B" stroke-linecap="round" stroke-linejoin="round"/><path d="M172.795 122.407a97.5 97.5 0 0 0-14.82-2.26c-.64-.05-.64.95 0 1 4.9.37 9.77 1.11 14.55 2.23.63.15.89-.82.27-.96zm1.82-9.61-18.84 4.56c-.63.15-.36 1.12.27.96l18.84-4.56c.63-.15.36-1.12-.27-.96" fill="#1A162B"/><path d="M40.315 146.067s-21.39 5.81-27.4 32.67c-5.45 24.33 8.34 39.15 33.26 41.07 24.93 1.92 5.85-63.83 5.85-63.83z" fill="#FCDCF2" stroke="#1A162B" stroke-linecap="round" stroke-linejoin="round"/><path d="M18.865 176.107v.25c0 .07.01.13.04.19.02.06.05.12.1.16.05.05.1.08.16.1.06.03.12.05.19.04a.5.5 0 0 0 .35-.15c.03-.03.05-.07.08-.1.05-.08.07-.16.07-.25v-.25c0-.07-.01-.13-.04-.19a.34.34 0 0 0-.1-.16.4.4 0 0 0-.16-.1.3.3 0 0 0-.19-.04.5.5 0 0 0-.35.15c-.03.03-.05.07-.08.1-.05.08-.07.16-.07.25m11.02-3.5h.14c.64 0 .64-1 0-1h-.14c-.64 0-.64 1 0 1h.14c.64 0 .64-1 0-1h-.14c-.64 0-.64 1 0 1m-2.76-10.27c.64 0 .64-1 0-1s-.64 1 0 1" fill="#1A162B"/><path d="m102.385 71.907 2.45 1.65 2.83-.85c2.58-.78 5.29-.63 7.69.33 1.83.73 3.48 1.92 4.77 3.51l1.86 2.3 2.96.02c2.21.01 4.32.65 6.12 1.78 2.06 1.29 3.71 3.21 4.65 5.57l1.1 2.75 2.82.89c2.27.71 4.2 2.08 5.62 3.86s2.32 3.97 2.51 6.34l.24 2.95 2.43 1.68a11.66 11.66 0 0 1 4.23 5.34c.83 2.12 1.04 4.48.53 6.8l-.64 2.89 1.83 2.32a11.66 11.66 0 0 1 2.47 6.35c.17 2.27-.32 4.59-1.5 6.65l-1.46 2.57 1.06 2.76c.72 1.87.93 3.85.68 5.75-.35 2.61-1.58 5.08-3.58 6.96l-2.15 2.02.2 2.95c.16 2.37-.4 4.67-1.54 6.64a11.7 11.7 0 0 1-4.98 4.65l-2.66 1.3-.67 2.88c-.54 2.31-1.76 4.35-3.43 5.89a11.7 11.7 0 0 1-6.13 2.98l-2.92.46-1.49 2.55a11.67 11.67 0 0 1-11.74 5.66l-2.93-.42-2.18 2a11.67 11.67 0 0 1-12.9 1.94l-2.67-1.27-2.67 1.27a11.63 11.63 0 0 1-6.74 1 11.63 11.63 0 0 1-6.15-2.94l-2.18-2-2.93.42c-2.35.34-4.69-.05-6.74-1.04s-3.81-2.57-5.01-4.62l-1.49-2.55-2.92-.46c-2.25-.35-4.29-1.34-5.92-2.78a11.7 11.7 0 0 1-3.64-6.09l-.67-2.88-2.66-1.3c-1.94-.95-3.54-2.39-4.66-4.13a11.65 11.65 0 0 1-1.85-7.16l.2-2.95-2.15-2.02a11.65 11.65 0 0 1-2.9-12.71l1.06-2.76-1.46-2.57a11.6 11.6 0 0 1-1.49-4.85c-.23-2.87.61-5.79 2.47-8.15l1.83-2.32-.64-2.89c-.49-2.23-.32-4.49.43-6.55.81-2.22 2.3-4.19 4.33-5.59l2.43-1.68.24-2.95c.18-2.19.96-4.22 2.19-5.92 1.44-1.98 3.5-3.5 5.94-4.27l2.82-.89 1.1-2.75c.88-2.21 2.39-4.04 4.27-5.32a11.7 11.7 0 0 1 6.51-2.03l2.96-.02 1.86-2.3c1.47-1.82 3.4-3.11 5.52-3.79 2.21-.71 4.62-.76 6.93-.06l2.83.85 2.45-1.65c1.97-1.33 4.24-1.99 6.51-1.99 2.28 0 4.55.66 6.52 1.99z" fill="#FCDCF2" stroke="#1A162B" stroke-linecap="round" stroke-linejoin="round"/><path d="M35.485 186.577s-3.36-5.21-10.12-4.31-10.53 5.93-13.09 11.89c-2.56 5.97-.09 17.64 6.67 20.28 6.75 2.64 8.17 2.22 11.84-3.75 3.67-5.98 4.71-24.11 4.71-24.11zm-1.5-30.24c5.3 1.49 27.77 7.5 60.8 12.2.16.02.31.09.43.2.12.1.21.24.25.41 1.32 5.35 12.39 49.95 17.51 64.3a.79.79 0 0 1-.118.766.8.8 0 0 1-.712.304c-6.97-.6-41.17-3.7-64.69-8.78a.78.78 0 0 1-.62-.62c-.61-2.91-3.74-17.82-7.36-33.3-3.41-14.61-5.84-30.15-6.51-34.58-.04-.29.07-.56.26-.73a.81.81 0 0 1 .76-.17" fill="#fff" stroke="#1A162B" stroke-linecap="round" stroke-linejoin="round"/><path d="M68.095 210.547c-2.05-4.2-5.59-7.05-8.67-10.24-3.32-3.43-6.47-8.19-5.99-13.41.22-2.37 1.52-4.84 3.47-4.97.83-.06 1.65.32 2.39.79 2.82 1.75 5.06 4.92 6.03 8.61.71-4.39 3.85-7.82 7.43-8.45 2.2-.39 4.76.45 5.92 2.82 1.47 2.99.14 6.73-1.27 9.68-2.68 5.61-5.64 11.02-8.87 16.17-.14-.34-.29-.67-.45-1z" fill="#EA130D"/><path d="M68.525 210.297c-2.8-5.66-8.44-8.98-11.87-14.16-1.73-2.61-2.94-5.64-2.76-8.81.08-1.42.49-2.99 1.48-4.06 1.17-1.26 2.59-.81 3.88.03 2.83 1.86 4.71 4.94 5.58 8.17.12.45.88.5.96 0 .45-2.63 1.78-5.17 3.97-6.75 1.96-1.42 4.65-2 6.81-.64 2.75 1.74 2.48 5.38 1.6 8.08-.5 1.55-1.22 3.01-1.94 4.47a163 163 0 0 1-8.14 14.67l.91.12c-.16-.38-.32-.75-.5-1.12-.28-.58-1.14-.07-.86.5.14.29.27.58.4.88.16.39.67.51.91.12 2.04-3.27 3.96-6.6 5.76-10 .93-1.75 1.83-3.52 2.69-5.31.74-1.52 1.45-3.05 1.91-4.68.82-2.93.72-6.47-1.97-8.41-2.2-1.59-5.15-1.32-7.4 0-2.8 1.64-4.59 4.65-5.12 7.8h.96c-.83-3.09-2.54-6.04-5.06-8.05-1.18-.94-2.7-1.98-4.28-1.65-1.36.28-2.31 1.5-2.84 2.71-1.33 3.02-.73 6.58.56 9.51 1.36 3.1 3.57 5.68 5.96 8.04 2.81 2.78 5.75 5.47 7.53 9.06.29.58 1.15.07.86-.5z" fill="#1A162B"/><path d="M18.935 200.617c.33-3.93 1.86-10.6 7.12-13.54 3.26-1.82 4.01-5.55 4.71-6.78 2.75-4.81 7.8-1.05 6.88 8.16 0 0 1.25 2.87 5.15 3.17 4.46.34 6.52.62 6.52 4.35s-4.42 3.92-6.29 3.63l4.23.49c4.01.46 3.72 7.76-2.37 7.1 0 0 2.8-.01 3.89 1.72 2.4 3.79-.89 6.63-4.77 5.85 0 0 1.78.16 2.94.9 2.98 1.91.3 6.53-7.91 5.12s-20.1-4.58-20.1-20.17" fill="#fff" stroke="#1A162B" stroke-linecap="round" stroke-linejoin="round"/><path d="M43.025 199.607s-5.27-.85-8.46-3.71m10.32 11.3s-7.52-.54-11.55-4.02m10.67 11.58s-7.46-1.02-12.06-3.94m45.1-57.85s1.23 8.32 10.95 8.66c9.96.35 11.7-8.79 11.7-8.79" stroke="#1A162B" stroke-linecap="round" stroke-linejoin="round"/><path d="M91.965 125.987c0-12.17-8.71-22.04-19.45-22.04s-19.45 9.87-19.45 22.04c0 7.15 3.01 13.5 7.66 17.52-1.68-9.54-2.34-24.34 9.26-25.84 14.1-1.82 13.69 14.94 12.02 27.55 5.94-3.77 9.96-10.97 9.96-19.24z" fill="#fff" stroke="#1A162B" stroke-linecap="round" stroke-linejoin="round"/><path d="M82.795 132.797c0-.28-.02-.55-.03-.82-.01-.21-.03-.42-.04-.62 0-.21-.03-.41-.05-.61-.02-.24-.04-.49-.07-.73-.03-.35-.07-.7-.12-1.04-.03-.2-.06-.39-.09-.58-.05-.31-.1-.62-.16-.93-.11-.57-.24-1.13-.39-1.67l-.15-.51c-.06-.22-.14-.44-.21-.65-.05-.15-.11-.31-.17-.46-.08-.21-.16-.41-.25-.61-.12-.28-.24-.55-.38-.81q-.165-.345-.36-.66c0-.01-.01-.01-.01-.02q-.18-.315-.39-.6-.24-.36-.51-.69c-.12-.14-.25-.29-.37-.42-.02-.01-.03-.03-.04-.04-.14-.15-.29-.3-.45-.44-.02-.03-.05-.05-.07-.07-.17-.15-.34-.29-.52-.43a3 3 0 0 0-.26-.2c-.01-.01-.02-.01-.03-.02-.13-.1-.27-.19-.42-.28-.04-.02-.08-.05-.12-.07-.02-.01-.05-.03-.07-.04q-.195-.12-.39-.21c-.15-.08-.31-.16-.48-.23-.21-.09-.43-.17-.65-.25a9 9 0 0 0-1.31-.35c-1.25-.24-2.66-.27-4.25-.06-.25.03-.5.07-.74.12-.2.03-.4.07-.59.13-.17.03-.34.07-.5.12-.16.04-.32.09-.47.14-.09.04-.18.07-.27.1-.17.06-.33.12-.49.19-.01.01-.03.01-.04.02-.1.04-.2.08-.29.13-.14.06-.27.13-.4.19-.13.07-.26.14-.39.22-.15.09-.3.18-.44.27-.18.12-.36.25-.53.38-.17.12-.34.26-.5.4q-.195.165-.39.36c-.09.08-.17.16-.25.25-.05.05-.1.1-.13.15a4 4 0 0 0-.33.37c-.1.11-.19.22-.27.34a.6.6 0 0 0-.07.09c-.07.09-.13.18-.2.27-.06.09-.13.18-.19.27-.22.35-.43.7-.62 1.07-.09.16-.18.33-.25.51-.18.35-.33.72-.47 1.09-.09.25-.18.5-.26.75-.13.41-.25.84-.36 1.27-.06.25-.12.5-.17.75-.09.41-.16.82-.22 1.24-.04.23-.07.45-.1.68-.02.19-.05.38-.07.57-.03.27-.05.55-.07.83-.02.23-.04.47-.05.7-.03.41-.04.83-.05 1.25-.01.55-.01 1.1 0 1.64 0 .39.02.77.04 1.16.01.34.03.68.05 1.03l.12 1.52q.114 1.177.27 2.35.06.54.15 1.08c.04.31.09.62.14.93l.15.9c.14.12.28.24.43.35.98.82 2.02 1.52 3.14 2.1-.22-.6-.36-1.23-.41-1.9-.03-.4-.03-.8.01-1.19 0-.07 0-.13.02-.2.01-.14.03-.29.06-.43.02-.11.05-.24.08-.36.06-.31.15-.61.26-.9.06-.15.11-.29.18-.43.02-.08.06-.15.1-.22.05-.11.1-.23.17-.33.02-.05.05-.11.09-.16.08-.15.17-.3.27-.44.06-.09.12-.19.19-.28.05-.07.11-.14.17-.21.28-.37.61-.71.97-1a2 2 0 0 1 .25-.21c.09-.08.18-.15.28-.21.09-.07.18-.14.28-.19.12-.09.23-.16.36-.22.15-.09.3-.17.46-.24.16-.08.32-.15.49-.21.04-.02.08-.03.12-.04.15-.06.31-.11.47-.16.06-.02.13-.03.2-.05q.06-.03.12-.03c.14-.04.28-.08.43-.1a7.397 7.397 0 0 1 8.71 6.73c.12 1.55-.26 3.02-.99 4.27 1.53-.47 2.99-1.15 4.35-2.01.13-.95.24-1.93.35-2.92.07-.61.13-1.24.18-1.86.03-.33.06-.67.08-1 .05-.55.08-1.1.11-1.65.03-.54.05-1.08.07-1.62v-.02q.03-.81.03-1.62v-.08c0-.55-.01-1.11-.03-1.66zm-6.83 2.12-.21.12c-.13.08-.27.15-.39.22q-.285.165-.48.27c-.28-.21-.74-.55-1.27-.99-.18-.15-.37-.32-.57-.49-.2-.18-.4-.36-.6-.55s-.41-.39-.61-.6c-.12-.12-.24-.25-.36-.38-.11-.12-.21-.24-.32-.36-.14-.17-.28-.34-.42-.52a8 8 0 0 1-.69-1.02c-.06-.09-.11-.19-.17-.29-.06-.12-.12-.25-.18-.37-.06-.13-.11-.26-.16-.4-.05-.12-.08-.25-.12-.37 0-.05-.02-.09-.03-.14-.03-.13-.05-.26-.07-.39-.02-.14-.03-.28-.03-.41 0-.82.33-1.62 1.14-2.33 2.29-2 4.31 0 5.05.93.86-.82 3.13-2.54 5.13-.25.6.68.85 1.38.85 2.07q0 .195-.03.39c-.02.17-.06.34-.11.5q-.03.135-.09.27c-.55 1.47-2.03 2.84-3.46 3.88-.14.1-.27.2-.4.29q-.42.3-.81.54c-.2.14-.4.26-.59.38" fill="#1A162B" stroke="#1A162B" stroke-linecap="round" stroke-linejoin="round"/><path d="M77.655 147.237a7.33 7.33 0 0 0 .99-4.28 7.4 7.4 0 0 0-7.92-6.83 7.4 7.4 0 0 0-6.83 7.92c.05.67.19 1.3.4 1.9 2.5 1.32 5.28 2.06 8.22 2.06 1.78 0 3.5-.28 5.14-.78zm2.95-20.64c-2-2.29-4.28-.57-5.13.25-.74-.93-2.76-2.93-5.05-.93-3.77 3.3 2.9 8.47 4.47 9.61 1.69-.91 9.02-5.15 5.72-8.92z" fill="#fff" stroke="#1A162B" stroke-linecap="round" stroke-linejoin="round"/><path d="M55.755 103.107c.34 2.47 1.89 4.72 4.05 5.95.56.32 1.06-.54.5-.86-1.96-1.12-3.28-3.12-3.59-5.35-.04-.27-.38-.41-.61-.35-.29.08-.39.35-.35.62zm6.8-4.23c-.36 2.52.47 5.11 2.29 6.91.46.45 1.16-.25.71-.71-1.54-1.53-2.33-3.78-2.03-5.94.04-.27-.07-.54-.35-.62-.23-.06-.58.08-.62.35zm7.36-1.81c-.96 2.35-.78 5.07.41 7.3.3.57 1.17.06.86-.5-1.08-2.01-1.17-4.42-.31-6.53.1-.25-.11-.55-.35-.62-.29-.08-.51.1-.61.35" fill="#1A162B"/><path d="M124.335 125.987c0-12.17-8.71-22.04-19.45-22.04s-19.45 9.87-19.45 22.04c0 7.15 3.01 13.5 7.66 17.52-1.68-9.54-2.34-24.34 9.26-25.84 14.1-1.82 13.69 14.94 12.02 27.55 5.94-3.77 9.96-10.97 9.96-19.24z" fill="#fff" stroke="#1A162B" stroke-linecap="round" stroke-linejoin="round"/><path d="M115.185 133.607c0-.27-.01-.54-.02-.81 0-.24 0-.48-.03-.72-.02-.39-.04-.78-.07-1.16-.03-.39-.07-.77-.11-1.14l-.12-.99-.03-.18c-.05-.35-.11-.69-.18-1.03-.06-.34-.13-.68-.21-1.01-.06-.27-.13-.53-.2-.79-.05-.18-.1-.35-.15-.52-.08-.27-.17-.53-.26-.79-.11-.29-.22-.56-.33-.84-.11-.26-.23-.51-.36-.76-.03-.08-.07-.15-.11-.22-.12-.24-.26-.48-.4-.71-.14-.24-.3-.47-.46-.69-.02-.04-.05-.07-.09-.11-.14-.21-.31-.41-.48-.6a.5.5 0 0 0-.12-.13c-.17-.19-.35-.37-.53-.54-.01-.02-.03-.03-.04-.04-.21-.2-.44-.38-.67-.55-.34-.25-.69-.47-1.06-.67-.38-.2-.77-.37-1.19-.51-.25-.09-.51-.16-.78-.23-.02-.01-.05-.01-.07-.02-.27-.06-.54-.12-.83-.16-.29-.05-.6-.09-.91-.11-.31-.03-.62-.04-.95-.04-.65 0-1.34.05-2.06.14-.25.03-.5.07-.74.12-.24.04-.47.09-.7.15-.2.04-.39.1-.58.16-.21.06-.41.13-.61.2l-.45.18c-.25.1-.49.22-.72.34-.17.09-.34.18-.5.28-.15.09-.3.18-.44.28q-.06.03-.09.06c-.15.11-.3.21-.44.33-.16.12-.31.24-.45.37a8 8 0 0 0-.82.82c-.28.31-.54.64-.79.99-.09.13-.17.26-.26.4-.1.16-.2.33-.3.5-.08.13-.15.26-.22.4q-.15.255-.27.54c0 .01-.01.01-.01.02q-.24.525-.45 1.08c-.27.73-.5 1.5-.68 2.3l-.03.12c-.09.39-.17.79-.23 1.19-.06.34-.11.69-.16 1.04-.01.12-.03.24-.04.35-.04.35-.07.7-.1 1.05-.01.05-.01.1-.01.15-.03.31-.05.63-.06.94-.02.33-.03.67-.03 1q-.015.75 0 1.5c0 .25.01.51.02.76 0 .23.01.47.03.7.01.3.03.59.05.88.03.47.07.93.11 1.39l.12 1.16c.03.3.07.59.11.88l.12.92c.03.24.07.47.1.7.08.54.17 1.07.26 1.58 1.1.96 2.3 1.78 3.57 2.45-.21-.6-.36-1.23-.4-1.9-.31-4.07 2.75-7.62 6.82-7.92.66-.05 1.3-.01 1.92.11.18.03.35.07.52.12.11.03.23.06.34.1q.106.017.2.07c.21.06.41.14.61.24.05.01.09.03.14.06.11.06.22.11.32.17.2.1.4.22.59.35.14.08.28.18.41.29.18.13.35.28.52.44.31.28.59.59.84.92.08.1.15.2.22.3.19.26.36.54.5.84.06.11.11.23.16.34.05.08.09.17.12.26.05.14.11.29.15.43v.01c.03.05.04.09.05.14.01 0 .02.02.01.04q.179.61.26 1.24c.03.12.04.24.05.36.11 1.55-.26 3.02-1 4.27a18 18 0 0 0 4.35-2.01l.18-1.36c.1-.86.2-1.73.28-2.62l.09-1.02c.17-1.89.27-3.81.27-5.69 0-.31 0-.62-.01-.93m-6.84 1.31-.21.12c-.14.08-.27.15-.39.22q-.285.165-.48.27c-.29-.21-.74-.55-1.28-.99-.55-.46-1.18-1.02-1.78-1.64-.12-.13-.24-.25-.36-.38s-.23-.27-.35-.4c-.11-.13-.22-.27-.33-.41-.12-.14-.22-.29-.32-.43s-.2-.28-.29-.43c-.19-.29-.35-.59-.49-.89-.06-.13-.11-.26-.16-.4-.05-.12-.08-.25-.12-.37l-.03-.14c-.03-.13-.05-.26-.07-.39-.02-.14-.03-.28-.03-.41 0-.83.33-1.62 1.14-2.33 2.29-2 4.31 0 5.05.93.86-.82 3.13-2.54 5.14-.25.59.68.84 1.38.84 2.06q0 .195-.03.39v.07c-.01.14-.05.28-.09.42q-.06.21-.15.42a4.8 4.8 0 0 1-.55.99c-.34.5-.76.97-1.23 1.41-.12.12-.26.24-.39.36-.58.52-1.22 1-1.81 1.4-.14.1-.29.2-.43.29-.07.05-.13.09-.2.13-.21.14-.4.26-.59.38z" fill="#1A162B" stroke="#1A162B" stroke-linecap="round" stroke-linejoin="round"/><path d="M110.025 147.237a7.401 7.401 0 0 0-6.93-11.11 7.4 7.4 0 0 0-6.83 7.92c.05.67.19 1.3.4 1.9 2.5 1.32 5.28 2.06 8.22 2.06 1.78 0 3.5-.28 5.14-.78zm2.96-20.64c-2-2.29-4.28-.57-5.13.25-.74-.93-2.76-2.93-5.05-.93-3.77 3.3 2.9 8.47 4.47 9.61 1.69-.91 9.02-5.15 5.72-8.92z" fill="#fff" stroke="#1A162B" stroke-linecap="round" stroke-linejoin="round"/><path d="M112.645 105.607c1.57-1.79 2.37-4.21 2.11-6.58-.03-.27-.21-.5-.5-.5-.25 0-.53.23-.5.5.23 2.11-.41 4.27-1.82 5.88-.42.48.28 1.19.71.71zm5.44 3.92c2.11-1.23 3.62-3.43 3.96-5.85.04-.27-.06-.54-.35-.62-.23-.06-.58.08-.61.35a7.24 7.24 0 0 1-3.5 5.25c-.56.32-.05 1.19.5.86zm3.71 5.43c3.08-.3 5.9-2.18 7.29-4.96.29-.57-.58-1.08-.86-.5-1.22 2.44-3.69 4.2-6.42 4.46-.63.06-.64 1.06 0 1z" fill="#1A162B"/><path d="M67.875 145.267c0 5.37-4.35 9.72-9.72 9.72s-9.72-4.35-9.72-9.72 4.35-9.72 9.72-9.72 9.72 4.35 9.72 9.72m59.443 6.482c1.228-5.225-2.012-10.458-7.238-11.686-5.226-1.229-10.458 2.012-11.687 7.237-1.228 5.226 2.012 10.458 7.238 11.687s10.458-2.012 11.687-7.238" fill="#FFABDF" stroke="#1A162B" stroke-linecap="round" stroke-linejoin="round"/><path d="M89.415 97.517v.23c0 .07.01.13.04.19.02.06.05.12.1.16.05.05.1.08.16.1.06.03.12.05.19.04a.5.5 0 0 0 .35-.15c.03-.03.05-.07.08-.1.05-.08.07-.16.07-.25v-.23c0-.07-.01-.13-.04-.19a.34.34 0 0 0-.1-.16.4.4 0 0 0-.16-.1.3.3 0 0 0-.19-.04.5.5 0 0 0-.35.15c-.03.03-.05.07-.08.1-.05.08-.07.16-.07.25m15.5-9.11c.64 0 .64-1 0-1s-.64 1 0 1m-23.21-3.99c.64 0 .64-1 0-1s-.64 1 0 1m-21.78 8.56h-.36c-.07 0-.13.01-.19.04-.06.02-.12.05-.16.1-.05.05-.08.1-.1.16-.03.06-.05.12-.04.19a.5.5 0 0 0 .15.35c.03.03.07.05.1.08.08.05.16.07.25.07h.36c.07 0 .13-.01.19-.04.06-.02.12-.05.16-.1.05-.05.08-.1.1-.16.03-.06.05-.12.04-.19a.5.5 0 0 0-.15-.35c-.03-.03-.07-.05-.1-.08a.45.45 0 0 0-.25-.07m-12.79 19.92.36-.18c.06-.03.1-.07.14-.13.04-.05.07-.11.09-.17a.34.34 0 0 0 0-.2.33.33 0 0 0-.06-.19c-.03-.03-.05-.07-.08-.1a.6.6 0 0 0-.22-.13c-.04 0-.09-.01-.13-.02-.09 0-.17.02-.25.07l-.36.18c-.06.03-.11.07-.14.13a.5.5 0 0 0-.09.17.34.34 0 0 0 0 .2c0 .07.02.13.06.19.03.03.05.07.08.1.06.06.14.1.22.13.04 0 .09.01.13.02.09 0 .17-.02.25-.07m-5.28 16.4h-.18c-.07 0-.13.01-.19.04-.06.02-.12.05-.16.1-.05.05-.08.1-.1.16-.03.06-.05.12-.04.19a.5.5 0 0 0 .15.35c.03.03.07.05.1.08.08.05.16.07.25.07h.18c.07 0 .13-.01.19-.04.06-.02.12-.05.16-.1.05-.05.08-.1.1-.16.03-.06.05-.12.04-.19a.5.5 0 0 0-.15-.35c-.03-.03-.07-.05-.1-.08a.44.44 0 0 0-.25-.07m1.44 18.89c.64 0 .64-1 0-1s-.64 1 0 1m22.89 10.55h.18c.07 0 .13-.01.19-.04.06-.02.12-.05.16-.1.05-.05.08-.1.1-.16.03-.06.05-.12.04-.19a.5.5 0 0 0-.15-.35c-.03-.03-.07-.05-.1-.08a.44.44 0 0 0-.25-.07h-.18c-.07 0-.13.01-.19.04-.06.02-.12.05-.16.1-.05.05-.08.1-.1.16-.03.06-.05.12-.04.19a.5.5 0 0 0 .15.35c.03.03.07.05.1.08.08.05.16.07.25.07m40.07 4.15.18-.18c.05-.05.08-.1.1-.16.03-.06.05-.12.04-.19 0-.07-.01-.13-.04-.19a.34.34 0 0 0-.1-.16c-.03-.03-.07-.05-.1-.08a.46.46 0 0 0-.38-.05c-.08.02-.16.07-.22.13l-.18.18c-.05.05-.08.1-.1.16-.03.06-.05.12-.04.19 0 .07.01.13.04.19.02.06.05.12.1.16.03.03.07.05.1.08a.45.45 0 0 0 .38.05c.08-.02.16-.07.22-.13m1.22 15.03v-.18c0-.07-.01-.13-.04-.19a.34.34 0 0 0-.1-.16.4.4 0 0 0-.16-.1.3.3 0 0 0-.19-.04.5.5 0 0 0-.35.15c-.03.03-.05.07-.08.1-.05.08-.07.16-.07.25v.18c0 .07.01.13.04.19.02.06.05.12.1.16.05.05.1.08.16.1.06.03.12.05.19.04a.5.5 0 0 0 .35-.15c.03-.03.05-.07.08-.1.05-.08.07-.16.07-.25m18.82-12.56h.18c.07 0 .13-.01.19-.04.06-.02.12-.05.16-.1.05-.05.08-.1.1-.16.03-.06.05-.12.04-.19a.5.5 0 0 0-.15-.35c-.03-.03-.07-.05-.1-.08a.45.45 0 0 0-.25-.07h-.18c-.07 0-.13.01-.19.04-.06.02-.12.05-.16.1-.05.05-.08.1-.1.16-.03.06-.05.12-.04.19a.5.5 0 0 0 .15.35c.03.03.07.05.1.08.08.05.16.07.25.07m11.65-16.28c0-.04-.01-.09-.02-.13v.01c0-.04.01-.09.02-.13v.01c.02-.04.03-.08.05-.12.03-.03.05-.07.08-.1s.07-.05.1-.08h-.01c.04-.02.08-.03.12-.05h-.02c.04 0 .09-.01.13-.02h-.03c.04 0 .09.01.13.02h-.03l.12.05h-.02c.03.03.07.05.1.08s.05.07.08.1c.02.04.03.08.05.12v-.01c0 .04.01.09.02.13v-.01c0 .04-.01.09-.02.13a.34.34 0 0 0 0-.2.33.33 0 0 0-.06-.19.35.35 0 0 0-.13-.14.5.5 0 0 0-.17-.09c-.04 0-.09-.01-.13-.02-.09 0-.17.02-.25.07-.03.03-.07.05-.1.08-.06.06-.1.14-.13.22-.01.05-.02.1-.02.14s.01.09.02.13c0 .01.05.11.05.12.01.02.03.04.04.06.01.01.03.04.05.06.03.03.07.06.11.08h.01c.01 0 .11.05.12.05h.01c.03 0 .1.01.13.02.05 0 .14-.02.16-.02.05 0 .12-.05.14-.06.04-.02.08-.06.12-.09.01-.02.06-.07.04-.05 0 0 .03-.03.04-.05.02-.04.04-.09.06-.13.01-.05.02-.1.02-.14s-.01-.09-.02-.13a.5.5 0 0 0-.09-.17c-.04-.05-.08-.1-.14-.13a.33.33 0 0 0-.19-.06.7.7 0 0 0-.2 0c-.04.02-.08.03-.12.05-.08.04-.13.1-.18.18-.02.04-.03.08-.05.12q-.03.135 0 .27zm11.6-10.2c.64 0 .64-1 0-1s-.64 1 0 1m-18.38-4.25v.18c0 .07.01.13.04.19.02.06.05.12.1.16.05.05.1.08.16.1.06.03.12.05.19.04a.5.5 0 0 0 .35-.15c.03-.03.05-.07.08-.1.05-.08.07-.16.07-.25v-.18c0-.07-.01-.13-.04-.19a.34.34 0 0 0-.1-.16.4.4 0 0 0-.16-.1.3.3 0 0 0-.19-.04.5.5 0 0 0-.35.15c-.03.03-.05.07-.08.1-.05.08-.07.16-.07.25m12.84-7.37c.64 0 .64-1 0-1s-.64 1 0 1m-11.49-9.81v-.18c0-.07-.01-.13-.04-.19a.34.34 0 0 0-.1-.16.4.4 0 0 0-.16-.1.3.3 0 0 0-.19-.04.5.5 0 0 0-.35.15c-.03.03-.05.07-.08.1-.05.08-.07.16-.07.25v.18c0 .07.01.13.04.19.02.06.05.12.1.16.05.05.1.08.16.1.06.03.12.05.19.04a.5.5 0 0 0 .35-.15c.03-.03.05-.07.08-.1.05-.08.07-.16.07-.25m6.84-12.91c.64 0 .64-1 0-1s-.64 1 0 1m-15.74-12.52h.18c.07 0 .13-.01.19-.04.06-.02.12-.05.16-.1.05-.05.08-.1.1-.16.03-.06.05-.12.04-.19a.5.5 0 0 0-.15-.35c-.03-.03-.07-.05-.1-.08a.45.45 0 0 0-.25-.07h-.18c-.07 0-.13.01-.19.04-.06.02-.12.05-.16.1-.05.05-.08.1-.1.16-.03.06-.05.12-.04.19a.5.5 0 0 0 .15.35c.03.03.07.05.1.08.08.05.16.07.25.07" fill="#1A162B"/><path d="M119.855 182.017c4.37-2.47 8.2-5.91 11.15-9.96 3.25-4.45 5.13-9.76 8.53-14.12 2.01-2.58 4.65-4.03 7.39-4.27 2.73-.24 5.56.73 7.95 3 11.67 11.07 5.55 35.49-3.03 46.54-1.72 2.21-3.68 4.22-5.79 6.05-.7.6-7.18 4.82-7.13 5.14 0 0-2.22-15.07-7.52-24.63-2.09-3.77-6.56-9.12-11.53-7.73z" fill="#FCDCF2" stroke="#1A162B" stroke-linecap="round" stroke-linejoin="round"/><path d="M134.515 181.367v.25c0 .07.01.13.04.19.02.06.05.12.1.16.05.05.1.08.16.1.06.03.12.05.19.04a.5.5 0 0 0 .35-.15c.03-.03.05-.07.08-.1.05-.08.07-.16.07-.25v-.25c0-.07-.01-.13-.04-.19a.34.34 0 0 0-.1-.16.4.4 0 0 0-.16-.1.3.3 0 0 0-.19-.04.5.5 0 0 0-.35.15c-.03.03-.05.07-.08.1-.05.08-.07.16-.07.25m13.01 16.77v-.25c0-.07-.01-.13-.04-.19a.34.34 0 0 0-.1-.16.4.4 0 0 0-.16-.1.3.3 0 0 0-.19-.04.5.5 0 0 0-.35.15c-.03.03-.05.07-.08.1-.05.08-.07.16-.07.25v.25c0 .07.01.13.04.19.02.06.05.12.1.16.05.05.1.08.16.1.06.03.12.05.19.04a.5.5 0 0 0 .35-.15c.03-.03.05-.07.08-.1.05-.08.07-.16.07-.25m-1.25-15.52v-.25c0-.07-.01-.13-.04-.19a.34.34 0 0 0-.1-.16.4.4 0 0 0-.16-.1.3.3 0 0 0-.19-.04.5.5 0 0 0-.35.15c-.03.03-.05.07-.08.1-.05.08-.07.16-.07.25v.25c0 .07.01.13.04.19.02.06.05.12.1.16.05.05.1.08.16.1.06.03.12.05.19.04a.5.5 0 0 0 .35-.15c.03-.03.05-.07.08-.1.05-.08.07-.16.07-.25m9.76-9.76v-.25c0-.07-.01-.13-.04-.19a.34.34 0 0 0-.1-.16.4.4 0 0 0-.16-.1.3.3 0 0 0-.19-.04.5.5 0 0 0-.35.15c-.03.03-.05.07-.08.1-.05.08-.07.16-.07.25v.25c0 .07.01.13.04.19.02.06.05.12.1.16.05.05.1.08.16.1.06.03.12.05.19.04a.5.5 0 0 0 .35-.15c.03-.03.05-.07.08-.1.05-.08.07-.16.07-.25m-10.51-5.51c.64 0 .64-1 0-1s-.64 1 0 1" fill="#1A162B"/><path d="M132.985 217.667c-15.99 8.9-28.19 10.69-36.32 10.3 0 0-8.62-.09-10.44-3.46-1.98-3.66 2.18-4.08 2.18-4.08-4.39-.83-5.46-2.42-5.16-4.94.42-3.58 5.46-2.19 5.46-2.19-2.16-.23-6.32-.42-6.92-4.68-.57-4.04 6.03-3.7 6.03-3.7s-7.11-.65-6.04-5.02c1-4.09 4.77-2.05 10.72-2.65s8.72-3.25 8.72-3.25c-8.77-6.34-1.83-9.69 1.98-7.87 3.81 1.83 7.38 2.25 7.38 2.25s2.81-.4 7.94-3.28c0 0 7.86 7.55 10.67 15.91s3.79 16.65 3.79 16.65z" fill="#fff" stroke="#1A162B" stroke-linecap="round" stroke-linejoin="round"/><path d="M88.705 213.297s9.4 1.3 15.74-1.83m-16.04 8.97s10.95 2.03 17.24-.53m-17.83-14.99s8.51 1.42 14.18-1.41" stroke="#1A162B" stroke-linecap="round" stroke-linejoin="round"/><path d="M124.845 181.017c-1.48-.99-4.92-3.31-8.38-1.78-5.99 2.65-4.06 8.66-4.06 8.66l4.28-1.69s5.43 4.53 9.36 12.99c4.44 9.56 4.23 20.01 4.23 20.01l-5.4 2.58s2.79 4.14 8.26 2.32c5.7-1.89 7.12-6.74 6.4-15.92-.62-7.82-7.88-22.64-14.69-27.18zm92.94 55.63-18.36-17.9-45.45 10.3 16.58 19.31z" fill="#fff" stroke="#1A162B" stroke-linecap="round" stroke-linejoin="round"/><path d="m180.895 235.127-10.34 13.23m47.23-11.71-26.23-4.99m7.87-12.91-11.59 17.95-33.86-7.65" stroke="#1A162B" stroke-linecap="round" stroke-linejoin="round"/><path d="M186.665 233.657c2.1-3.57 5.35-1.94 5.15.06s-2.04 4.63-2.04 4.63-4.09-.43-6.91-1.47c-2.81-1.04-.95-4.24 1.88-3.64 1.08.23 1.91.42 1.91.42z" fill="#EA130D" stroke="#1A162B" stroke-linecap="round" stroke-linejoin="round"/><path d="m152.255 214.587 22.17-12.9 41.57 21.07-20.79 14.69z" fill="#fff" stroke="#1A162B" stroke-linecap="round" stroke-linejoin="round"/><path d="m188.405 222.097 6.8 15.35m-42.95-22.86 26.66 1.55m-4.49-14.45 6.86 20.24 34.71.83" stroke="#1A162B" stroke-linecap="round" stroke-linejoin="round"/><path d="M183.165 219.267c-1.16-3.98-4.71-3.18-5.01-1.2-.3 1.99.85 4.99.85 4.99s4.07.58 7.06.26c2.98-.32 1.96-3.88-.94-3.99-1.1-.04-1.96-.06-1.96-.06" fill="#EA130D" stroke="#1A162B" stroke-linecap="round" stroke-linejoin="round"/><path d="M250.495 162.587s6.9-6.72-2.48-13.98c-9.38-7.25-21.41-9.2-33.97-6.02s-18.23 13.8-15.93 27.6 6.9 20.88 6.9 20.88 33.97 5.66 57.51 2.12c23.53-3.54 30.26-15.57 20.88-24.24s-26.54-7.61-32.91-6.37z" fill="#FFABDF" stroke="#1A162B" stroke-linecap="round" stroke-linejoin="round"/><path d="M284.985 184.037c-.46-.57-.98-1.12-1.57-1.66-9.38-8.67-27.57-7.63-33.94-6.39l.12-12.61c-.46-.45-.99-.9-1.57-1.35-9.38-7.25-21.41-9.2-33.97-6.02-8.53 2.16-13.87 7.75-15.71 15.42" fill="#FFABDF"/><path d="M284.985 184.037c-.46-.57-.98-1.12-1.57-1.66-9.38-8.67-27.57-7.63-33.94-6.39l.12-12.61c-.46-.45-.99-.9-1.57-1.35-9.38-7.25-21.41-9.2-33.97-6.02-8.53 2.16-13.87 7.75-15.71 15.42" stroke="#1A162B" stroke-linecap="round" stroke-linejoin="round"/><path d="M234.455 162.007c0 1.87-3.9 3.38-8.7 3.38s-8.7-1.51-8.7-3.38l1.75-7.92h13.89l1.75 7.92z" fill="#E9130D" stroke="#1A162B" stroke-linecap="round" stroke-linejoin="round"/><path d="M232.705 154.087c0 1.65-3.11 2.99-6.95 2.99s-6.95-1.34-6.95-2.99 3.11-2.99 6.95-2.99 6.95 1.34 6.95 2.99" fill="#CC0505" stroke="#1A162B" stroke-linecap="round" stroke-linejoin="round"/><path d="M276.175 181.777c0 1.87-3.9 3.38-8.7 3.38s-8.7-1.51-8.7-3.38l1.75-7.92h13.89l1.75 7.92z" fill="#E9130D" stroke="#1A162B" stroke-linecap="round" stroke-linejoin="round"/><path d="M274.425 173.847c0 1.65-3.11 2.99-6.95 2.99s-6.95-1.34-6.95-2.99 3.11-2.99 6.95-2.99 6.95 1.34 6.95 2.99" fill="#CC0505" stroke="#1A162B" stroke-linecap="round" stroke-linejoin="round"/><path d="M234.455 194.847c0 1.87-3.9 3.38-8.7 3.38s-8.7-1.51-8.7-3.38l1.75-7.92h13.89l1.75 7.92z" fill="#E9130D" stroke="#1A162B" stroke-linecap="round" stroke-linejoin="round"/><path d="M225.755 189.917c3.838 0 6.95-1.339 6.95-2.99s-3.112-2.99-6.95-2.99-6.95 1.338-6.95 2.99c0 1.651 3.112 2.99 6.95 2.99" fill="#CC0505" stroke="#1A162B" stroke-linecap="round" stroke-linejoin="round"/><path d="M259.065 196.967c0 1.87-3.9 3.38-8.7 3.38s-8.7-1.51-8.7-3.38l1.75-7.92h13.89l1.75 7.92z" fill="#E9130D" stroke="#1A162B" stroke-linecap="round" stroke-linejoin="round"/><path d="M257.305 189.037c0 1.65-3.11 2.99-6.95 2.99s-6.95-1.34-6.95-2.99 3.11-2.99 6.95-2.99 6.95 1.34 6.95 2.99" fill="#CC0505" stroke="#1A162B" stroke-linecap="round" stroke-linejoin="round"/><path d="M250.365 177.617c0 1.87-3.9 3.38-8.7 3.38s-8.7-1.51-8.7-3.38l1.75-7.92h13.89l1.75 7.92z" fill="#E9130D" stroke="#1A162B" stroke-linecap="round" stroke-linejoin="round"/><path d="M248.605 169.697c0 1.65-3.11 2.99-6.95 2.99s-6.95-1.34-6.95-2.99 3.11-2.99 6.95-2.99 6.95 1.34 6.95 2.99" fill="#CC0505" stroke="#1A162B" stroke-linecap="round" stroke-linejoin="round"/><path d="M222.425 177.617c0 1.87-3.9 3.38-8.7 3.38s-8.7-1.51-8.7-3.38l1.75-7.92h13.89l1.75 7.92z" fill="#E9130D" stroke="#1A162B" stroke-linecap="round" stroke-linejoin="round"/><path d="M220.675 169.697c0 1.65-3.11 2.99-6.95 2.99s-6.95-1.34-6.95-2.99 3.11-2.99 6.95-2.99 6.95 1.34 6.95 2.99" fill="#CC0505" stroke="#1A162B" stroke-linecap="round" stroke-linejoin="round"/><path d="M197.695 162.267c-.18 2.49-.04 5.15.43 7.93 2.3 13.8 6.9 20.88 6.9 20.88s33.97 5.66 57.51 2.12c17.02-2.56 25.25-9.56 24.95-16.51l-.35 17.65c-1.75 5.95-9.89 11.48-24.6 13.69-23.53 3.54-57.51-2.12-57.51-2.12s-4.6-7.08-6.9-20.88c-.45-2.71-.66-20.34-.5-22.77" fill="#FCDCF2"/><path d="M197.695 162.267c-.18 2.49-.04 5.15.43 7.93 2.3 13.8 6.9 20.88 6.9 20.88s33.97 5.66 57.51 2.12c17.02-2.56 25.25-9.56 24.95-16.51l-.35 17.65c-1.75 5.95-9.89 11.48-24.6 13.69-23.53 3.54-57.51-2.12-57.51-2.12s-4.6-7.08-6.9-20.88c-.45-2.71-.66-20.34-.5-22.77m7.4 28.82v14.83" stroke="#1A162B" stroke-linecap="round" stroke-linejoin="round"/></svg>