<svg width="297" height="249" viewBox="0 0 297 249" fill="none" xmlns="http://www.w3.org/2000/svg">
<path d="M158.875 238.137C229.882 238.137 287.445 208.019 287.445 170.867C287.445 133.715 229.882 103.597 158.875 103.597C87.8677 103.597 30.3049 133.715 30.3049 170.867C30.3049 208.019 87.8677 238.137 158.875 238.137Z" fill="#1B162A"/>
<path d="M143.435 105.077L165.025 95.7368L147.565 46.5568L194.505 32.8968L215.215 88.0968C215.215 88.0968 225.715 118.217 201.115 129.357C176.515 140.497 145.355 152.187 145.355 152.187C145.355 152.187 133.755 147.157 132.465 134.137C131.185 121.117 143.445 105.067 143.445 105.067L143.435 105.077Z" fill="#FCDCF2" stroke="#1A162B" stroke-linecap="round" stroke-linejoin="round"/>
<path d="M165.025 95.7368C165.025 95.7368 169.005 93.7368 174.285 98.1368" stroke="#1A162B" stroke-linecap="round" stroke-linejoin="round"/>
<path d="M193.585 95.7568V95.5068C193.585 95.4368 193.575 95.3768 193.545 95.3168C193.527 95.2551 193.493 95.1996 193.445 95.1568C193.4 95.1112 193.345 95.0769 193.285 95.0568C193.228 95.0228 193.161 95.0087 193.095 95.0168C192.963 95.0187 192.837 95.0726 192.745 95.1668C192.715 95.1968 192.695 95.2368 192.665 95.2668C192.615 95.3468 192.595 95.4268 192.595 95.5168V95.7668C192.595 95.8368 192.605 95.8968 192.635 95.9568C192.655 96.0168 192.685 96.0768 192.735 96.1168C192.785 96.1668 192.835 96.1968 192.895 96.2168C192.955 96.2468 193.015 96.2668 193.085 96.2568C193.217 96.2549 193.343 96.201 193.435 96.1068C193.465 96.0768 193.485 96.0368 193.515 96.0068C193.565 95.9268 193.585 95.8468 193.585 95.7568ZM182.325 88.2468V87.9968C182.325 87.9268 182.315 87.8668 182.285 87.8068C182.267 87.7451 182.233 87.6896 182.185 87.6468C182.14 87.6012 182.085 87.5669 182.025 87.5468C181.968 87.5128 181.901 87.4987 181.835 87.5068C181.703 87.5087 181.577 87.5626 181.485 87.6568C181.455 87.6868 181.435 87.7268 181.405 87.7568C181.355 87.8368 181.335 87.9168 181.335 88.0068V88.2568C181.335 88.3268 181.345 88.3868 181.375 88.4468C181.395 88.5068 181.425 88.5668 181.475 88.6068C181.525 88.6568 181.575 88.6868 181.635 88.7068C181.695 88.7368 181.755 88.7568 181.825 88.7468C181.957 88.7449 182.083 88.691 182.175 88.5968C182.205 88.5668 182.225 88.5268 182.255 88.4968C182.305 88.4168 182.325 88.3368 182.325 88.2468ZM194.335 80.7368H194.475C195.115 80.7368 195.115 79.7368 194.475 79.7368H194.335C193.695 79.7368 193.695 80.7368 194.335 80.7368H194.475C195.115 80.7368 195.115 79.7368 194.475 79.7368H194.335C193.695 79.7368 193.695 80.7368 194.335 80.7368Z" fill="#1A162B"/>
<path d="M161.225 85.0468C161.225 85.0468 183.725 67.9268 208.975 71.4868L201.755 52.5868L194.495 32.8868L147.555 46.5468L153.275 63.2368L161.225 85.0368V85.0468Z" fill="white" stroke="#1A162B" stroke-linecap="round" stroke-linejoin="round"/>
<path d="M169.595 79.9468L157.375 43.9268M179.535 75.5268L168.745 40.6168M189.265 72.7168L177.645 38.0268M199.085 71.4568L186.725 35.3868" stroke="#1A162B" stroke-linecap="round" stroke-linejoin="round"/>
<path d="M212.425 35.7968C210.225 34.4068 207.935 33.1768 205.575 32.1068C207.945 33.1668 210.235 34.4068 212.425 35.7968C213.455 34.4068 214.445 32.8568 215.295 31.1768C213.123 29.8483 210.849 28.6947 208.495 27.7268C210.845 28.6868 213.125 29.8468 215.295 31.1768C218.295 25.2668 219.635 17.7368 215.355 10.0068C214.175 12.1368 212.485 14.5768 210.095 17.2868C201.125 27.4268 174.995 39.9068 160.375 42.8368C158.345 43.2468 156.505 43.5568 154.825 43.7968C154.915 44.4868 154.955 45.1868 154.975 45.8768C155.035 48.0868 154.915 50.4068 153.805 52.3168C152.335 54.8568 149.385 56.1668 146.425 56.4868C149.715 60.7068 153.285 63.2568 153.285 63.2568C153.285 63.2568 159.695 57.3868 174.285 52.6068C188.875 47.8268 201.765 52.6068 201.765 52.6068C201.765 52.6068 202.015 48.9168 205.145 44.2768C206.025 42.9768 207.125 41.6068 208.525 40.2168C206.475 38.8868 204.325 37.7168 202.085 36.7268C204.325 37.7068 206.475 38.8868 208.525 40.2168C208.645 40.0968 208.755 39.9768 208.885 39.8668C210.035 38.7568 211.265 37.3868 212.435 35.8068L212.425 35.7968Z" fill="#EA130D"/>
<path d="M212.425 35.7968C210.225 34.4068 207.935 33.1768 205.575 32.1068C207.945 33.1668 210.235 34.4068 212.425 35.7968ZM212.425 35.7968C213.455 34.4068 214.445 32.8568 215.295 31.1768M212.425 35.7968L212.435 35.8068C211.265 37.3868 210.035 38.7568 208.885 39.8668C208.755 39.9768 208.645 40.0968 208.525 40.2168M215.295 31.1768C213.123 29.8483 210.849 28.6947 208.495 27.7268C210.845 28.6868 213.125 29.8468 215.295 31.1768ZM215.295 31.1768C218.295 25.2668 219.635 17.7368 215.355 10.0068C214.175 12.1368 212.485 14.5768 210.095 17.2868C201.125 27.4268 174.995 39.9068 160.375 42.8368C158.345 43.2468 156.505 43.5568 154.825 43.7968C154.915 44.4868 154.955 45.1868 154.975 45.8768C155.035 48.0868 154.915 50.4068 153.805 52.3168C152.335 54.8568 149.385 56.1668 146.425 56.4868C149.715 60.7068 153.285 63.2568 153.285 63.2568C153.285 63.2568 159.695 57.3868 174.285 52.6068C188.875 47.8268 201.765 52.6068 201.765 52.6068C201.765 52.6068 202.015 48.9168 205.145 44.2768C206.025 42.9768 207.125 41.6068 208.525 40.2168M208.525 40.2168C206.475 38.8868 204.325 37.7168 202.085 36.7268C204.325 37.7068 206.475 38.8868 208.525 40.2168Z" stroke="#1A162B" stroke-linecap="round" stroke-linejoin="round"/>
<path d="M153.795 52.3068C154.905 50.3968 155.025 48.0768 154.965 45.8668C154.945 45.1768 154.905 44.4768 154.815 43.7868C144.375 45.2768 140.405 43.9268 140.405 43.9268C141.165 46.5768 142.155 49.3968 143.395 51.8068C144.285 53.5268 145.335 55.0968 146.415 56.4768C149.375 56.1568 152.315 54.8468 153.795 52.3068Z" fill="#EA130D" stroke="#1A162B" stroke-linecap="round" stroke-linejoin="round"/>
<path d="M154.815 43.7868C154.685 42.7168 154.425 41.6768 153.945 40.7268C154.435 41.6768 154.685 42.7268 154.815 43.7868C156.495 43.5468 158.345 43.2368 160.365 42.8268C174.985 39.8968 201.115 27.4168 210.085 17.2768C212.485 14.5668 214.165 12.1268 215.345 9.9968C214.135 7.8068 212.465 5.5968 210.265 3.4068L138.365 34.6268C138.365 34.6268 138.985 38.9668 140.395 43.9168C140.395 43.9168 144.365 45.2668 154.805 43.7768L154.815 43.7868Z" fill="#FFABDF"/>
<path d="M154.815 43.7868C154.685 42.7168 154.425 41.6768 153.945 40.7268C154.435 41.6768 154.685 42.7268 154.815 43.7868ZM154.815 43.7868C156.495 43.5468 158.345 43.2368 160.365 42.8268C174.985 39.8968 201.115 27.4168 210.085 17.2768C212.485 14.5668 214.165 12.1268 215.345 9.9968C214.135 7.8068 212.465 5.5968 210.265 3.4068L138.365 34.6268C138.365 34.6268 138.985 38.9668 140.395 43.9168C140.395 43.9168 144.365 45.2668 154.805 43.7768L154.815 43.7868Z" stroke="#1A162B" stroke-linecap="round" stroke-linejoin="round"/>
<path d="M210.275 3.4168C212.475 8.4268 198.155 19.5768 178.275 28.3268C158.395 37.0768 140.495 40.1068 138.295 35.0968C136.095 30.0868 150.415 18.9368 170.295 10.1868C190.175 1.4368 208.075 -1.5932 210.275 3.4168Z" fill="#FFABDF" stroke="#1A162B" stroke-linecap="round" stroke-linejoin="round"/>
<path d="M142.075 27.4468C141.785 27.7368 141.515 28.0168 141.245 28.2968C147.635 29.7568 156.865 31.9068 164.325 33.6568C164.925 33.4668 165.535 33.2668 166.145 33.0568C162.575 32.2168 158.005 31.1468 153.435 30.0868C148.555 28.9468 144.865 28.0968 142.075 27.4568V27.4468ZM152.135 19.7568C151.735 20.0168 151.335 20.2668 150.955 20.5268C158.455 22.2268 171.805 25.3468 180.425 27.3668C180.915 27.1368 181.415 26.9168 181.895 26.6868C178.275 25.8368 171.735 24.3068 165.175 22.7768C159.245 21.3968 155.085 20.4268 152.145 19.7568H152.135ZM163.335 13.4468L161.925 14.1668C169.535 15.8868 183.645 19.1868 192.345 21.2268C192.765 20.9868 193.185 20.7368 193.595 20.4968C190.075 19.6668 183.275 18.0768 176.465 16.4868C170.465 15.0968 166.285 14.1168 163.335 13.4468ZM176.625 7.55679C176.075 7.76679 175.525 7.98679 174.965 8.20679C182.765 9.98679 194.595 12.7568 202.385 14.5868C202.725 14.3168 203.065 14.0568 203.385 13.7968C199.725 12.9368 193.305 11.4268 186.875 9.93678C182.615 8.94678 179.265 8.16679 176.625 7.55679ZM196.095 3.76678C194.485 3.39678 193.025 3.05679 191.665 2.73679C190.975 2.90679 190.265 3.08679 189.555 3.27679C195.885 4.73679 203.335 6.47679 209.225 7.85679C209.425 7.54679 209.615 7.24679 209.775 6.95679C206.085 6.08679 201.095 4.92678 196.105 3.76678H196.095Z" fill="#1A162B"/>
<path d="M145.845 128.947L190.495 114.457L215.285 74.2568C215.285 74.2568 243.995 77.3668 259.085 95.1768L238.185 136.027C238.185 136.027 233.865 149.487 212.135 158.287C190.405 167.097 121.755 191.387 121.755 191.387C121.755 191.387 116.495 182.867 121.825 166.967C127.155 151.067 145.845 128.947 145.845 128.947Z" fill="#FCDCF2" stroke="#1A162B" stroke-linecap="round" stroke-linejoin="round"/>
<path d="M190.495 114.457C190.495 114.457 193.925 114.287 197.515 120.267" stroke="#1A162B" stroke-linecap="round" stroke-linejoin="round"/>
<path d="M196.845 155.577C197.485 155.577 197.485 154.577 196.845 154.577C196.205 154.577 196.205 155.577 196.845 155.577ZM193.335 143.567C193.975 143.567 193.975 142.567 193.335 142.567C192.695 142.567 192.695 143.567 193.335 143.567ZM210.105 149.827V150.077C210.105 150.147 210.115 150.207 210.145 150.267C210.165 150.327 210.195 150.387 210.245 150.427C210.295 150.477 210.345 150.507 210.405 150.527C210.465 150.557 210.525 150.577 210.595 150.567C210.727 150.565 210.853 150.511 210.945 150.417C210.975 150.387 210.995 150.347 211.025 150.317C211.075 150.237 211.095 150.157 211.095 150.067V149.817C211.095 149.747 211.085 149.687 211.055 149.627C211.037 149.565 211.003 149.51 210.955 149.467C210.91 149.421 210.855 149.387 210.795 149.367C210.738 149.333 210.671 149.319 210.605 149.327C210.473 149.329 210.347 149.383 210.255 149.477C210.225 149.507 210.205 149.547 210.175 149.577C210.125 149.657 210.105 149.737 210.105 149.827ZM205.355 139.057H205.605C205.675 139.057 205.735 139.047 205.795 139.017C205.855 138.997 205.915 138.967 205.955 138.917C206.005 138.867 206.035 138.817 206.055 138.757C206.085 138.697 206.105 138.637 206.095 138.567C206.093 138.435 206.039 138.309 205.945 138.217C205.915 138.187 205.875 138.167 205.845 138.137C205.77 138.089 205.683 138.065 205.595 138.067H205.345C205.275 138.067 205.215 138.077 205.155 138.107C205.095 138.127 205.035 138.157 204.995 138.207C204.945 138.257 204.915 138.307 204.895 138.367C204.865 138.427 204.845 138.487 204.855 138.557C204.857 138.689 204.911 138.814 205.005 138.907C205.035 138.937 205.075 138.957 205.105 138.987C205.185 139.037 205.265 139.057 205.355 139.057ZM226.375 139.307C227.015 139.307 227.015 138.307 226.375 138.307C225.735 138.307 225.735 139.307 226.375 139.307ZM214.865 124.037H215.005C215.645 124.037 215.645 123.037 215.005 123.037H214.865C214.225 123.037 214.225 124.037 214.865 124.037H215.005C215.645 124.037 215.645 123.037 215.005 123.037H214.865C214.225 123.037 214.225 124.037 214.865 124.037ZM197.745 129.647L197.995 129.897C198.045 129.947 198.095 129.977 198.155 129.997C198.215 130.027 198.275 130.047 198.345 130.037C198.415 130.037 198.475 130.027 198.535 129.997C198.595 129.977 198.655 129.947 198.695 129.897C198.725 129.867 198.745 129.827 198.775 129.797C198.811 129.741 198.834 129.678 198.842 129.612C198.851 129.547 198.845 129.48 198.825 129.417C198.801 129.333 198.757 129.258 198.695 129.197L198.445 128.947C198.4 128.901 198.345 128.867 198.285 128.847C198.228 128.813 198.161 128.799 198.095 128.807C198.025 128.807 197.965 128.817 197.905 128.847C197.845 128.867 197.785 128.897 197.745 128.947C197.715 128.977 197.695 129.017 197.665 129.047C197.629 129.103 197.606 129.165 197.597 129.231C197.589 129.297 197.595 129.364 197.615 129.427C197.635 129.507 197.685 129.587 197.745 129.647Z" fill="#1A162B"/>
<path d="M194.435 108.067C194.155 108.517 222.095 108.937 238.185 136.027L249.995 112.937C249.995 112.937 253.525 94.0768 234.235 87.7268C214.945 81.3768 206.635 88.2868 206.635 88.2868L194.435 108.067Z" fill="white" stroke="#1A162B" stroke-linecap="round" stroke-linejoin="round"/>
<path d="M204.215 110.057L225.325 76.2168M213.675 113.577L233.875 79.5368M223.155 119.257L243.085 82.8668M231.275 126.617L252.025 88.4968" stroke="#1A162B" stroke-linecap="round" stroke-linejoin="round"/>
<path d="M206.635 88.2868C206.635 88.2868 236.045 89.2868 249.995 112.937C249.995 112.937 256.475 108.837 263.955 111.807C271.435 114.777 283.595 119.447 292.015 104.797C300.435 90.1468 295.135 78.2468 273.315 66.1168C251.495 53.9868 236.475 47.9068 228.425 52.1168C210.525 61.4768 206.645 88.2868 206.645 88.2868H206.635Z" fill="#EA130D" stroke="#1A162B" stroke-linecap="round" stroke-linejoin="round"/>
<path d="M258.315 99.7468C258.125 101.627 257.715 103.587 257.905 105.477C258.095 107.387 259.005 109.127 259.885 110.797C260.185 111.367 261.045 110.857 260.745 110.297C259.925 108.737 259.015 107.077 258.885 105.287C258.755 103.457 259.135 101.577 259.315 99.7568C259.375 99.1168 258.375 99.1168 258.315 99.7568V99.7468ZM265.935 101.027C265.875 103.197 265.835 105.387 266.235 107.527C266.635 109.677 267.475 111.707 268.315 113.707C268.555 114.297 269.525 114.037 269.275 113.437C268.455 111.477 267.625 109.487 267.225 107.397C266.815 105.297 266.875 103.137 266.935 101.017C266.955 100.377 265.955 100.377 265.935 101.017V101.027ZM274.015 100.847C274.065 103.237 274.115 105.667 274.615 108.017C275.115 110.367 276.105 112.567 277.155 114.707C277.435 115.287 278.305 114.777 278.015 114.207C277.005 112.137 276.055 110.017 275.575 107.757C275.095 105.497 275.065 103.157 275.015 100.857C275.005 100.217 274.005 100.217 274.015 100.857V100.847ZM281.665 100.667C281.725 102.707 281.705 104.847 282.315 106.817C282.925 108.787 284.145 110.537 285.255 112.247C285.605 112.787 286.475 112.287 286.115 111.747C285.055 110.117 283.855 108.437 283.275 106.557C282.695 104.667 282.715 102.627 282.665 100.667C282.645 100.027 281.645 100.027 281.665 100.667ZM213.425 68.0768C215.155 69.3768 217.125 70.2668 219.275 70.5568C221.355 70.8368 223.455 70.5868 225.495 70.1368C227.635 69.6668 229.745 69.0468 231.705 68.0668C233.615 67.1068 235.365 65.8468 236.905 64.3768C238.635 62.7268 240.095 60.7868 241.225 58.6768C241.525 58.1068 240.665 57.6068 240.365 58.1768C238.455 61.7468 235.575 64.7768 232.045 66.7668C230.245 67.7768 228.325 68.4268 226.325 68.9268C224.345 69.4268 222.315 69.7868 220.265 69.6668C217.925 69.5268 215.795 68.6268 213.925 67.2268C213.415 66.8368 212.915 67.7068 213.425 68.0868V68.0768Z" fill="#1A162B"/>
<path d="M243.115 59.8568C231.805 55.0868 224.375 56.1268 222.005 56.6668C209.555 68.1268 206.635 88.2868 206.635 88.2868C206.635 88.2868 236.045 89.2868 249.995 112.937C249.995 112.937 256.475 108.837 263.955 111.807C271.435 114.777 283.595 119.447 292.015 104.797C293.125 102.867 293.995 100.987 294.615 99.1468C293.325 96.8468 288.665 88.9568 281.765 81.8868C273.575 73.4968 256.995 65.6968 243.115 59.8468V59.8568Z" stroke="#1A162B" stroke-linecap="round" stroke-linejoin="round"/>
<path d="M273.305 66.1168C251.485 53.9868 236.465 47.9068 228.415 52.1168C226.035 53.3568 223.915 54.9168 222.005 56.6668C224.375 56.1168 231.805 55.0868 243.115 59.8568C256.995 65.7068 273.575 73.5068 281.765 81.8968C288.665 88.9668 293.325 96.8468 294.615 99.1568C298.745 87.0168 292.255 76.6568 273.305 66.1268V66.1168ZM39.545 126.607C39.545 126.607 15.975 121.367 5.75496 129.747C-4.46504 138.127 2.61494 174.277 19.1149 174.017C35.6149 173.757 49.505 157.777 49.505 157.777L39.5549 126.607H39.545Z" fill="#FFABDF" stroke="#1A162B" stroke-linecap="round" stroke-linejoin="round"/>
<path d="M36.7149 133.977C36.7149 133.977 20.6949 130.417 13.7549 136.117C6.81492 141.807 11.6149 166.367 22.8349 166.197C34.0449 166.017 43.4749 155.167 43.4749 155.167L36.7149 133.987V133.977Z" stroke="#1A162B" stroke-linecap="round" stroke-linejoin="round"/>
<path d="M20.5548 147.727C25.4448 147.067 30.3448 146.407 35.2448 145.757C35.8748 145.667 35.6048 144.707 34.9748 144.797C30.0748 145.457 25.1848 146.117 20.2848 146.767C19.6548 146.857 19.9248 147.817 20.5548 147.727Z" fill="#1A162B"/>
<path d="M119.775 81.7168C119.775 81.7168 134.765 62.7768 131.665 49.9268C128.575 37.0768 92.9548 27.6968 85.9948 42.6668C79.0448 57.6368 87.3748 77.0968 87.3748 77.0968L119.765 81.7168H119.775Z" fill="#FFABDF" stroke="#1A162B" stroke-linecap="round" stroke-linejoin="round"/>
<path d="M115.565 75.9068C115.565 75.9068 125.745 63.0368 123.645 54.3068C121.545 45.5768 97.3449 39.2068 92.6149 49.3768C87.8949 59.5468 93.5549 72.7668 93.5549 72.7668L115.565 75.9068Z" stroke="#1A162B" stroke-linecap="round" stroke-linejoin="round"/>
<path d="M103.045 54.8268C103.195 59.8668 103.085 64.9068 102.715 69.9368C102.665 70.5768 103.665 70.5768 103.715 69.9368C104.075 64.9068 104.185 59.8668 104.045 54.8268C104.025 54.1868 103.025 54.1868 103.045 54.8268ZM110.235 55.3268C108.695 60.0168 107.155 64.7168 105.615 69.4068C105.415 70.0168 106.375 70.2868 106.575 69.6768C108.115 64.9868 109.655 60.2868 111.195 55.5968C111.395 54.9868 110.435 54.7168 110.235 55.3268Z" fill="#1A162B"/>
<path d="M155.505 139.917C155.505 139.917 179.505 142.587 186.465 153.817C193.425 165.057 175.045 196.967 159.505 191.387C143.975 185.807 136.005 166.197 136.005 166.197L155.505 139.917Z" fill="#FFABDF" stroke="#1A162B" stroke-linecap="round" stroke-linejoin="round"/>
<path d="M156.675 146.997C156.675 146.997 172.985 148.807 177.705 156.437C182.435 164.067 169.945 185.757 159.395 181.967C148.845 178.177 143.425 164.847 143.425 164.847L156.675 146.997Z" stroke="#1A162B" stroke-linecap="round" stroke-linejoin="round"/>
<path d="M167.635 165.547C163.155 163.287 159.275 160.037 154.795 157.777C154.225 157.487 153.715 158.347 154.295 158.637C158.775 160.897 162.655 164.147 167.135 166.407C167.705 166.697 168.215 165.837 167.635 165.547Z" fill="#1A162B"/>
<path d="M38.3549 125.417C38.3549 125.417 16.8649 123.887 7.4449 116.107C-5.3951 105.507 9.80492 79.4368 22.8949 74.9868C35.9949 70.5368 52.2349 91.3668 56.1649 96.8668C60.0949 102.367 38.3549 125.417 38.3549 125.417Z" fill="#FFABDF" stroke="#1A162B" stroke-linecap="round" stroke-linejoin="round"/>
<path d="M36.8849 118.617C36.8849 118.617 22.0548 117.557 15.5548 112.197C6.69484 104.887 17.1848 86.8968 26.2148 83.8168C35.2548 80.7468 46.4549 95.1168 49.1649 98.9168C51.8749 102.717 36.8748 118.617 36.8748 118.617H36.8849Z" stroke="#1A162B" stroke-linecap="round" stroke-linejoin="round"/>
<path d="M20.1548 105.257C26.9248 105.787 33.6348 107.017 40.1548 108.927C40.7748 109.107 41.0348 108.147 40.4248 107.967C33.8148 106.037 27.0248 104.797 20.1648 104.257C19.5248 104.207 19.5248 105.207 20.1648 105.257H20.1548ZM25.9148 93.6068C30.4348 98.2568 35.4048 102.457 40.7448 106.137C41.2748 106.507 41.7748 105.637 41.2448 105.277C35.9742 101.64 31.074 97.4929 26.6148 92.8968C26.1648 92.4368 25.4548 93.1368 25.9048 93.6068H25.9148Z" fill="#1A162B"/>
<path d="M146.065 103.157C146.065 103.157 166.775 97.2168 174.385 87.6668C184.755 74.6468 164.515 52.2668 150.775 50.6168C137.045 48.9668 125.445 72.6968 122.735 78.8968C120.025 85.0868 146.055 103.157 146.055 103.157H146.065Z" fill="#FFABDF" stroke="#1A162B" stroke-linecap="round" stroke-linejoin="round"/>
<path d="M146.105 96.1968C146.105 96.1968 160.395 92.0968 165.645 85.5068C172.805 76.5268 158.835 61.0868 149.355 59.9468C139.875 58.8068 131.885 75.1868 130.015 79.4568C128.145 83.7268 146.105 96.1968 146.105 96.1968Z" stroke="#1A162B" stroke-linecap="round" stroke-linejoin="round"/>
<path d="M159.475 78.6968C152.873 80.6378 146.489 83.255 140.425 86.5068C139.855 86.8068 140.365 87.6768 140.925 87.3668C146.915 84.1468 153.215 81.5668 159.745 79.6568C160.365 79.4768 160.095 78.5068 159.475 78.6968ZM150.825 68.9368C147.406 74.3473 143.467 79.4113 139.065 84.0568C138.625 84.5268 139.325 85.2368 139.775 84.7668C144.235 80.0568 148.235 74.9268 151.695 69.4368C152.035 68.8868 151.175 68.3868 150.835 68.9368H150.825Z" fill="#1A162B"/>
<path d="M85.8348 77.3968C85.8348 77.3968 84.5048 52.1768 74.0948 44.0368C63.6848 35.8968 31.2448 51.7668 35.1048 67.8168C38.9648 83.8668 57.5848 93.9168 57.5848 93.9168L85.8248 77.3968H85.8348Z" fill="#FFABDF" stroke="#1A162B" stroke-linecap="round" stroke-linejoin="round"/>
<path d="M77.9949 74.5068C77.9949 74.5068 77.0949 57.4368 70.0549 51.9368C63.0149 46.4268 41.0649 57.1668 43.6749 68.0268C46.2849 78.8868 58.8849 85.6868 58.8849 85.6868L77.9949 74.5068Z" stroke="#1A162B" stroke-linecap="round" stroke-linejoin="round"/>
<path d="M55.6548 67.0068C59.1548 70.4568 62.3949 74.1668 65.3249 78.1168C65.7049 78.6268 66.5748 78.1268 66.1848 77.6168C63.2048 73.5968 59.9148 69.8168 56.3548 66.3068C55.8948 65.8568 55.1849 66.5568 55.6449 67.0168L55.6548 67.0068ZM62.5348 59.8868C64.6148 66.0068 66.6849 72.1268 68.7649 78.2468C68.9749 78.8568 69.9348 78.5968 69.7248 77.9768C67.6448 71.8568 65.5748 65.7368 63.4948 59.6168C63.2848 59.0068 62.3248 59.2668 62.5348 59.8868Z" fill="#1A162B"/>
<path d="M143.425 104.757C143.425 104.757 169.655 91.0768 182.095 95.5168C194.545 99.9568 198.485 135.857 182.855 141.177C167.235 146.497 148.775 136.147 148.775 136.147L143.425 104.757Z" fill="#FFABDF" stroke="#1A162B" stroke-linecap="round" stroke-linejoin="round"/>
<path d="M154.265 108.507C154.265 108.507 169.165 100.137 177.585 103.147C186.005 106.157 188.675 130.437 178.105 134.037C167.535 137.637 155.045 130.627 155.045 130.627L154.265 108.497V108.507Z" stroke="#1A162B" stroke-linecap="round" stroke-linejoin="round"/>
<path d="M172.795 122.407C167.92 121.274 162.966 120.519 157.975 120.147C157.335 120.097 157.335 121.097 157.975 121.147C162.875 121.517 167.745 122.257 172.525 123.377C173.155 123.527 173.415 122.557 172.795 122.417V122.407ZM174.615 112.797L155.775 117.357C155.145 117.507 155.415 118.477 156.045 118.317L174.885 113.757C175.515 113.607 175.245 112.637 174.615 112.797Z" fill="#1A162B"/>
<path d="M40.3149 146.067C40.3149 146.067 18.9249 151.877 12.9149 178.737C7.46489 203.067 21.2549 217.887 46.1749 219.807C71.1049 221.727 52.0249 155.977 52.0249 155.977L40.3149 146.067Z" fill="#FCDCF2" stroke="#1A162B" stroke-linecap="round" stroke-linejoin="round"/>
<path d="M18.8649 176.107V176.357C18.8649 176.427 18.8749 176.487 18.9049 176.547C18.9249 176.607 18.9549 176.667 19.0049 176.707C19.0549 176.757 19.1049 176.787 19.1649 176.807C19.2249 176.837 19.2849 176.857 19.3549 176.847C19.4868 176.845 19.6126 176.791 19.7049 176.697C19.7349 176.667 19.7549 176.627 19.7849 176.597C19.8349 176.517 19.8549 176.437 19.8549 176.347V176.097C19.8549 176.027 19.8449 175.967 19.8149 175.907C19.7973 175.845 19.7626 175.79 19.7149 175.747C19.6703 175.701 19.6154 175.667 19.5549 175.647C19.4977 175.613 19.4309 175.599 19.3649 175.607C19.233 175.609 19.1072 175.663 19.0149 175.757C18.9849 175.787 18.9649 175.827 18.9349 175.857C18.8849 175.937 18.8649 176.017 18.8649 176.107ZM29.8849 172.607H30.0249C30.6649 172.607 30.6649 171.607 30.0249 171.607H29.8849C29.2449 171.607 29.2449 172.607 29.8849 172.607H30.0249C30.6649 172.607 30.6649 171.607 30.0249 171.607H29.8849C29.2449 171.607 29.2449 172.607 29.8849 172.607ZM27.1249 162.337C27.7649 162.337 27.7649 161.337 27.1249 161.337C26.4849 161.337 26.4849 162.337 27.1249 162.337Z" fill="#1A162B"/>
<path d="M102.385 71.9068L104.835 73.5568L107.665 72.7068C110.245 71.9268 112.955 72.0768 115.355 73.0368C117.185 73.7668 118.835 74.9568 120.125 76.5468L121.985 78.8468L124.945 78.8668C127.155 78.8768 129.265 79.5168 131.065 80.6468C133.125 81.9368 134.775 83.8568 135.715 86.2168L136.815 88.9668L139.635 89.8568C141.905 90.5668 143.835 91.9368 145.255 93.7168C146.675 95.4968 147.575 97.6868 147.765 100.057L148.005 103.007L150.435 104.687C152.345 106.006 153.818 107.865 154.665 110.027C155.495 112.147 155.705 114.507 155.195 116.827L154.555 119.717L156.385 122.037C157.822 123.86 158.682 126.071 158.855 128.387C159.025 130.657 158.535 132.977 157.355 135.037L155.895 137.607L156.955 140.367C157.675 142.237 157.885 144.217 157.635 146.117C157.285 148.727 156.055 151.197 154.055 153.077L151.905 155.097L152.105 158.047C152.265 160.417 151.705 162.717 150.565 164.687C149.404 166.698 147.67 168.317 145.585 169.337L142.925 170.637L142.255 173.517C141.715 175.827 140.495 177.867 138.825 179.407C137.123 180.986 134.989 182.024 132.695 182.387L129.775 182.847L128.285 185.397C127.113 187.401 125.37 189.01 123.279 190.018C121.187 191.027 118.843 191.388 116.545 191.057L113.615 190.637L111.435 192.637C109.984 193.969 108.219 194.911 106.305 195.377C103.755 195.997 101.015 195.757 98.5349 194.577L95.8649 193.307L93.1949 194.577C91.0985 195.576 88.751 195.924 86.4549 195.577C84.1573 195.233 82.0152 194.209 80.3049 192.637L78.1249 190.637L75.1949 191.057C72.8449 191.397 70.5049 191.007 68.4549 190.017C66.4049 189.027 64.6449 187.447 63.4449 185.397L61.9549 182.847L59.0349 182.387C56.7849 182.037 54.7449 181.047 53.1149 179.607C51.3005 178.002 50.0287 175.875 49.4749 173.517L48.8049 170.637L46.1449 169.337C44.2049 168.387 42.6049 166.947 41.4849 165.207C40.107 163.084 39.4576 160.571 39.6349 158.047L39.8349 155.097L37.6849 153.077C35.9894 151.489 34.8074 149.43 34.2907 147.165C33.7739 144.901 33.946 142.533 34.7849 140.367L35.8449 137.607L34.3849 135.037C33.5365 133.55 33.0276 131.894 32.8949 130.187C32.6649 127.317 33.5049 124.397 35.3649 122.037L37.1949 119.717L36.5549 116.827C36.0649 114.597 36.2349 112.337 36.9849 110.277C37.7949 108.057 39.2849 106.087 41.3149 104.687L43.7449 103.007L43.9849 100.057C44.1649 97.8668 44.9449 95.8368 46.1749 94.1368C47.6149 92.1568 49.6749 90.6368 52.1149 89.8668L54.9349 88.9768L56.0349 86.2268C56.9149 84.0168 58.4249 82.1868 60.3049 80.9068C62.2252 79.5987 64.4915 78.892 66.8149 78.8768L69.7749 78.8568L71.6349 76.5568C73.1049 74.7368 75.0349 73.4468 77.1549 72.7668C79.3649 72.0568 81.7749 72.0068 84.0849 72.7068L86.9149 73.5568L89.3649 71.9068C91.3349 70.5768 93.6049 69.9168 95.8749 69.9168C98.1549 69.9168 100.425 70.5768 102.395 71.9068H102.385Z" fill="#FCDCF2" stroke="#1A162B" stroke-linecap="round" stroke-linejoin="round"/>
<path d="M35.4849 186.577C35.4849 186.577 32.1249 181.367 25.3649 182.267C18.6049 183.167 14.8349 188.197 12.2749 194.157C9.71488 200.127 12.1849 211.797 18.9449 214.437C25.6949 217.077 27.1149 216.657 30.7849 210.687C34.4549 204.707 35.4949 186.577 35.4949 186.577H35.4849ZM33.9849 156.337C39.2849 157.827 61.7549 163.837 94.7849 168.537C94.9449 168.557 95.0949 168.627 95.2149 168.737C95.3349 168.837 95.4249 168.977 95.4649 169.147C96.7849 174.497 107.855 219.097 112.975 233.447C113.022 233.574 113.036 233.711 113.015 233.845C112.995 233.979 112.941 234.105 112.857 234.213C112.774 234.32 112.665 234.404 112.541 234.457C112.416 234.51 112.28 234.531 112.145 234.517C105.175 233.917 70.9749 230.817 47.4549 225.737C47.3359 225.71 47.2236 225.659 47.1249 225.587C46.9741 225.471 46.871 225.304 46.8349 225.117C46.2249 222.207 43.0949 207.297 39.4749 191.817C36.0649 177.207 33.6349 161.667 32.9649 157.237C32.9249 156.947 33.0349 156.677 33.2249 156.507C33.3271 156.417 33.4503 156.354 33.5831 156.324C33.7159 156.295 33.8541 156.299 33.9849 156.337Z" fill="white" stroke="#1A162B" stroke-linecap="round" stroke-linejoin="round"/>
<path d="M68.0949 210.547C66.0449 206.347 62.5049 203.497 59.4249 200.307C56.1049 196.877 52.9549 192.117 53.4349 186.897C53.6549 184.527 54.9549 182.057 56.9049 181.927C57.7349 181.867 58.5549 182.247 59.2949 182.717C62.1149 184.467 64.3549 187.637 65.3249 191.327C66.0349 186.937 69.1749 183.507 72.7549 182.877C74.9549 182.487 77.5149 183.327 78.6749 185.697C80.1449 188.687 78.8149 192.427 77.4049 195.377C74.7249 200.987 71.7649 206.397 68.5349 211.547C68.3949 211.207 68.2449 210.877 68.0849 210.547H68.0949Z" fill="#EA130D"/>
<path d="M68.5249 210.297C65.7249 204.637 60.0849 201.317 56.6549 196.137C54.9249 193.527 53.7149 190.497 53.8949 187.327C53.9749 185.907 54.3849 184.337 55.3749 183.267C56.5449 182.007 57.9649 182.457 59.2549 183.297C62.0849 185.157 63.9649 188.237 64.8349 191.467C64.9549 191.917 65.7149 191.967 65.7949 191.467C66.2449 188.837 67.5749 186.297 69.7649 184.717C71.7249 183.297 74.4149 182.717 76.5749 184.077C79.3249 185.817 79.0549 189.457 78.1749 192.157C77.6749 193.707 76.9549 195.167 76.2349 196.627C73.7752 201.653 71.0583 206.55 68.0949 211.297L69.0049 211.417C68.8449 211.037 68.6849 210.667 68.5049 210.297C68.2249 209.717 67.3649 210.227 67.6449 210.797C67.7849 211.087 67.9149 211.377 68.0449 211.677C68.2049 212.067 68.7149 212.187 68.9549 211.797C70.9949 208.527 72.9149 205.197 74.7149 201.797C75.6449 200.047 76.5449 198.277 77.4049 196.487C78.1449 194.967 78.8549 193.437 79.3149 191.807C80.1349 188.877 80.0349 185.337 77.3449 183.397C75.1449 181.807 72.1949 182.077 69.9449 183.397C67.1449 185.037 65.3549 188.047 64.8249 191.197H65.7849C64.9549 188.107 63.2449 185.157 60.7249 183.147C59.5449 182.207 58.0249 181.167 56.4449 181.497C55.0849 181.777 54.1349 182.997 53.6049 184.207C52.2749 187.227 52.8749 190.787 54.1649 193.717C55.5249 196.817 57.7349 199.397 60.1249 201.757C62.9349 204.537 65.8749 207.227 67.6549 210.817C67.9449 211.397 68.8049 210.887 68.5149 210.317L68.5249 210.297Z" fill="#1A162B"/>
<path d="M18.9348 200.617C19.2648 196.687 20.7948 190.017 26.0548 187.077C29.3148 185.257 30.0648 181.527 30.7648 180.297C33.5148 175.487 38.5648 179.247 37.6448 188.457C37.6448 188.457 38.8948 191.327 42.7948 191.627C47.2548 191.967 49.3148 192.247 49.3148 195.977C49.3148 199.707 44.8948 199.897 43.0248 199.607L47.2548 200.097C51.2648 200.557 50.9748 207.857 44.8848 207.197C44.8848 207.197 47.6848 207.187 48.7748 208.917C51.1748 212.707 47.8848 215.547 44.0048 214.767C44.0048 214.767 45.7848 214.927 46.9448 215.667C49.9248 217.577 47.2448 222.197 39.0348 220.787C30.8248 219.377 18.9348 216.207 18.9348 200.617Z" fill="white" stroke="#1A162B" stroke-linecap="round" stroke-linejoin="round"/>
<path d="M43.0248 199.607C43.0248 199.607 37.7548 198.757 34.5648 195.897M44.8848 207.197C44.8848 207.197 37.3648 206.657 33.3348 203.177M44.0048 214.757C44.0048 214.757 36.5448 213.737 31.9448 210.817M77.0448 152.967C77.0448 152.967 78.2748 161.287 87.9948 161.627C97.9548 161.977 99.6948 152.837 99.6948 152.837" stroke="#1A162B" stroke-linecap="round" stroke-linejoin="round"/>
<path d="M91.9649 125.987C91.9649 113.817 83.255 103.947 72.515 103.947C61.775 103.947 53.0649 113.817 53.0649 125.987C53.0649 133.137 56.0749 139.487 60.7249 143.507C59.0449 133.967 58.385 119.167 69.985 117.667C84.085 115.847 83.6749 132.607 82.0049 145.217C87.9449 141.447 91.9649 134.247 91.9649 125.977V125.987Z" fill="white" stroke="#1A162B" stroke-linecap="round" stroke-linejoin="round"/>
<path d="M82.7949 132.797C82.7949 132.517 82.7749 132.247 82.7649 131.977C82.7549 131.767 82.7349 131.557 82.7249 131.357C82.7249 131.147 82.6949 130.947 82.6749 130.747C82.6549 130.507 82.6349 130.257 82.6049 130.017C82.5749 129.667 82.5349 129.317 82.4849 128.977C82.4549 128.777 82.4249 128.587 82.3949 128.397C82.3449 128.087 82.2949 127.777 82.2349 127.467C82.1249 126.897 81.9949 126.337 81.8449 125.797L81.6949 125.287C81.6349 125.067 81.5549 124.847 81.4849 124.637C81.4349 124.487 81.3749 124.327 81.3149 124.177C81.2349 123.967 81.1549 123.767 81.0649 123.567C80.9449 123.287 80.8249 123.017 80.6849 122.757C80.5749 122.527 80.4549 122.307 80.3249 122.097C80.3249 122.087 80.3149 122.087 80.3149 122.077C80.1949 121.867 80.0649 121.667 79.9249 121.477C79.7649 121.237 79.5949 121.007 79.4149 120.787C79.2949 120.647 79.1649 120.497 79.0449 120.367C79.0249 120.357 79.0149 120.337 79.0049 120.327C78.8649 120.177 78.7149 120.027 78.5549 119.887C78.5349 119.857 78.5049 119.837 78.4849 119.817C78.3149 119.667 78.1449 119.527 77.9649 119.387C77.8819 119.315 77.7951 119.249 77.7049 119.187C77.6949 119.177 77.6849 119.177 77.6749 119.167C77.5449 119.067 77.4049 118.977 77.2549 118.887C77.2149 118.867 77.1749 118.837 77.1349 118.817C77.1149 118.807 77.0849 118.787 77.0649 118.777C76.9349 118.697 76.8049 118.627 76.6749 118.567C76.5249 118.487 76.3649 118.407 76.1949 118.337C75.9849 118.247 75.7649 118.167 75.5449 118.087C75.1176 117.937 74.6797 117.82 74.2349 117.737C72.9849 117.497 71.5749 117.467 69.9849 117.677C69.7349 117.707 69.4849 117.747 69.2449 117.797C69.0449 117.827 68.8449 117.867 68.6549 117.927C68.4849 117.957 68.3149 117.997 68.1549 118.047C67.9949 118.087 67.8349 118.137 67.6849 118.187C67.5949 118.227 67.5049 118.257 67.4149 118.287C67.2449 118.347 67.0849 118.407 66.9249 118.477C66.9149 118.487 66.8949 118.487 66.8849 118.497C66.7849 118.537 66.6849 118.577 66.5949 118.627C66.4549 118.687 66.3249 118.757 66.1949 118.817C66.0649 118.887 65.9349 118.957 65.8049 119.037C65.6549 119.127 65.5049 119.217 65.3649 119.307C65.1849 119.427 65.0049 119.557 64.8349 119.687C64.6649 119.807 64.4949 119.947 64.3349 120.087C64.2049 120.197 64.0749 120.317 63.9449 120.447C63.8549 120.527 63.7749 120.607 63.6949 120.697C63.6449 120.747 63.5949 120.797 63.5649 120.847C63.4473 120.963 63.3371 121.087 63.2349 121.217C63.1349 121.327 63.0449 121.437 62.9649 121.557C62.9387 121.584 62.9153 121.615 62.8949 121.647C62.8249 121.737 62.7649 121.827 62.6949 121.917C62.6349 122.007 62.5649 122.097 62.5049 122.187C62.2849 122.537 62.0749 122.887 61.8849 123.257C61.7949 123.417 61.7049 123.587 61.6349 123.767C61.4549 124.117 61.3049 124.487 61.1649 124.857C61.0749 125.107 60.9849 125.357 60.9049 125.607C60.7749 126.017 60.6549 126.447 60.5449 126.877C60.4849 127.127 60.4249 127.377 60.3749 127.627C60.2849 128.037 60.2149 128.447 60.1549 128.867C60.1149 129.097 60.0849 129.317 60.0549 129.547C60.0349 129.737 60.0049 129.927 59.9849 130.117C59.9549 130.387 59.9349 130.667 59.9149 130.947C59.8949 131.177 59.8749 131.417 59.8649 131.647C59.8349 132.057 59.8249 132.477 59.8149 132.897C59.8049 133.447 59.8049 133.997 59.8149 134.537C59.8149 134.927 59.8349 135.307 59.8549 135.697C59.8649 136.037 59.8849 136.377 59.9049 136.727L60.0249 138.247C60.1012 139.032 60.1913 139.815 60.2949 140.597C60.3349 140.957 60.3849 141.317 60.4449 141.677C60.4849 141.987 60.5349 142.297 60.5849 142.607L60.7349 143.507C60.8749 143.627 61.0149 143.747 61.1649 143.857C62.1449 144.677 63.1849 145.377 64.3049 145.957C64.0849 145.357 63.9449 144.727 63.8949 144.057C63.8649 143.657 63.8649 143.257 63.9049 142.867C63.9049 142.797 63.9049 142.737 63.9249 142.667C63.9349 142.527 63.9549 142.377 63.9849 142.237C64.0049 142.127 64.0349 141.997 64.0649 141.877C64.1249 141.567 64.2149 141.267 64.3249 140.977C64.3849 140.827 64.4349 140.687 64.5049 140.547C64.5249 140.467 64.5649 140.397 64.6049 140.327C64.6549 140.217 64.7049 140.097 64.7749 139.997C64.7949 139.947 64.8249 139.887 64.8649 139.837C64.9449 139.687 65.0349 139.537 65.1349 139.397C65.1949 139.307 65.2549 139.207 65.3249 139.117C65.3749 139.047 65.4349 138.977 65.4949 138.907C65.7749 138.537 66.1049 138.197 66.4649 137.907C66.5335 137.838 66.607 137.775 66.6849 137.717C66.6949 137.707 66.7049 137.697 66.7149 137.697C66.8049 137.617 66.8949 137.547 66.9949 137.487C67.0849 137.417 67.1749 137.347 67.2749 137.297C67.3949 137.207 67.5049 137.137 67.6349 137.077C67.7849 136.987 67.9349 136.907 68.0949 136.837C68.2549 136.757 68.4149 136.687 68.5849 136.627C68.6249 136.607 68.6649 136.597 68.7049 136.587C68.8549 136.527 69.0149 136.477 69.1749 136.427C69.2349 136.407 69.3049 136.397 69.3749 136.377C69.4149 136.357 69.4549 136.347 69.4949 136.347C69.6349 136.307 69.7749 136.267 69.9249 136.247C70.9463 136.059 71.9959 136.088 73.0052 136.332C74.0146 136.577 74.961 137.032 75.7829 137.667C76.6047 138.302 77.2834 139.103 77.7749 140.018C78.2663 140.933 78.5593 141.941 78.6349 142.977C78.7549 144.527 78.3749 145.997 77.6449 147.247C79.1749 146.777 80.6349 146.097 81.9949 145.237C82.1249 144.287 82.2349 143.307 82.3449 142.317C82.4149 141.707 82.4749 141.077 82.5249 140.457C82.5549 140.127 82.5849 139.787 82.6049 139.457C82.6549 138.907 82.6849 138.357 82.7149 137.807C82.7449 137.267 82.7649 136.727 82.7849 136.187V136.167C82.8049 135.627 82.8149 135.087 82.8149 134.547V134.467C82.8149 133.917 82.8049 133.357 82.7849 132.807L82.7949 132.797ZM75.9649 134.917L75.7549 135.037C75.6249 135.117 75.4849 135.187 75.3649 135.257C75.1749 135.367 75.0149 135.457 74.8849 135.527C74.6049 135.317 74.1449 134.977 73.6149 134.537C73.4349 134.387 73.2449 134.217 73.0449 134.047C72.8449 133.867 72.6449 133.687 72.4449 133.497C72.2449 133.307 72.0349 133.107 71.8349 132.897C71.7149 132.777 71.5949 132.647 71.4749 132.517C71.3649 132.397 71.2649 132.277 71.1549 132.157C71.0149 131.987 70.8749 131.817 70.7349 131.637C70.479 131.315 70.2483 130.974 70.0449 130.617C69.9849 130.527 69.9349 130.427 69.8749 130.327C69.8149 130.207 69.7549 130.077 69.6949 129.957C69.6349 129.827 69.5849 129.697 69.5349 129.557C69.4849 129.437 69.4549 129.307 69.4149 129.187C69.4149 129.137 69.3949 129.097 69.3849 129.047C69.3549 128.917 69.3349 128.787 69.3149 128.657C69.2949 128.517 69.2849 128.377 69.2849 128.247C69.2849 127.427 69.6149 126.627 70.4249 125.917C72.7149 123.917 74.7349 125.917 75.4749 126.847C76.3349 126.027 78.6049 124.307 80.6049 126.597C81.2049 127.277 81.4549 127.977 81.4549 128.667C81.4549 128.797 81.4449 128.927 81.4249 129.057C81.4049 129.227 81.3649 129.397 81.3149 129.557C81.2949 129.647 81.2649 129.737 81.2249 129.827C80.6749 131.297 79.1949 132.667 77.7649 133.707C77.6249 133.807 77.4949 133.907 77.3649 133.997C77.0849 134.197 76.8149 134.377 76.5549 134.537C76.3549 134.677 76.1549 134.797 75.9649 134.917Z" fill="#1A162B" stroke="#1A162B" stroke-linecap="round" stroke-linejoin="round"/>
<path d="M77.6549 147.237C78.4147 145.945 78.7602 144.451 78.6449 142.957C78.4991 141.001 77.5831 139.184 76.0981 137.903C74.6131 136.622 72.6806 135.984 70.7249 136.127C68.7694 136.273 66.9518 137.189 65.6711 138.674C64.3905 140.159 63.7517 142.091 63.8949 144.047C63.9449 144.717 64.0849 145.347 64.2949 145.947C66.7949 147.267 69.5749 148.007 72.5149 148.007C74.2949 148.007 76.0149 147.727 77.6549 147.227V147.237ZM80.6049 126.597C78.6049 124.307 76.3249 126.027 75.4749 126.847C74.7349 125.917 72.7149 123.917 70.4249 125.917C66.6549 129.217 73.3249 134.387 74.8949 135.527C76.5849 134.617 83.9149 130.377 80.6149 126.607L80.6049 126.597Z" fill="white" stroke="#1A162B" stroke-linecap="round" stroke-linejoin="round"/>
<path d="M55.7549 103.107C56.0949 105.577 57.6449 107.827 59.8049 109.057C60.3649 109.377 60.8649 108.517 60.3049 108.197C58.3449 107.077 57.0249 105.077 56.7149 102.847C56.6749 102.577 56.3349 102.437 56.1049 102.497C55.8149 102.577 55.7149 102.847 55.7549 103.117V103.107ZM62.5549 98.8768C62.1949 101.397 63.0249 103.987 64.8449 105.787C65.3049 106.237 66.0049 105.537 65.5549 105.077C64.0149 103.547 63.2249 101.297 63.5249 99.1368C63.5649 98.8668 63.4549 98.5968 63.1749 98.5168C62.9449 98.4568 62.5949 98.5968 62.5549 98.8668V98.8768ZM69.9149 97.0668C68.9549 99.4168 69.1349 102.137 70.3249 104.367C70.6249 104.937 71.4949 104.427 71.1849 103.867C70.1049 101.857 70.0149 99.4468 70.8749 97.3368C70.9749 97.0868 70.7649 96.7868 70.5249 96.7168C70.2349 96.6368 70.0149 96.8168 69.9149 97.0668Z" fill="#1A162B"/>
<path d="M124.335 125.987C124.335 113.817 115.625 103.947 104.885 103.947C94.1448 103.947 85.4348 113.817 85.4348 125.987C85.4348 133.137 88.4448 139.487 93.0948 143.507C91.4148 133.967 90.7548 119.167 102.355 117.667C116.455 115.847 116.045 132.607 114.375 145.217C120.315 141.447 124.335 134.247 124.335 125.977V125.987Z" fill="white" stroke="#1A162B" stroke-linecap="round" stroke-linejoin="round"/>
<path d="M115.185 133.607C115.185 133.337 115.175 133.067 115.165 132.797C115.165 132.557 115.165 132.317 115.135 132.077C115.115 131.687 115.095 131.297 115.065 130.917C115.035 130.527 114.995 130.147 114.955 129.777L114.835 128.787L114.805 128.607C114.755 128.257 114.695 127.917 114.625 127.577C114.565 127.237 114.495 126.897 114.415 126.567C114.355 126.297 114.285 126.037 114.215 125.777C114.165 125.597 114.115 125.427 114.065 125.257C113.985 124.987 113.895 124.727 113.805 124.467C113.695 124.177 113.585 123.907 113.475 123.627C113.365 123.367 113.245 123.117 113.115 122.867C113.085 122.787 113.045 122.717 113.005 122.647C112.885 122.407 112.745 122.167 112.605 121.937C112.465 121.697 112.305 121.467 112.145 121.247C112.125 121.207 112.095 121.177 112.055 121.137C111.915 120.927 111.745 120.727 111.575 120.537C111.543 120.487 111.502 120.443 111.455 120.407C111.285 120.217 111.105 120.037 110.925 119.867C110.915 119.847 110.895 119.837 110.885 119.827C110.675 119.627 110.445 119.447 110.215 119.277C109.875 119.027 109.525 118.807 109.155 118.607C108.775 118.407 108.385 118.237 107.965 118.097C107.715 118.007 107.455 117.937 107.185 117.867C107.165 117.857 107.135 117.857 107.115 117.847C106.845 117.787 106.575 117.727 106.285 117.687C105.995 117.637 105.685 117.597 105.375 117.577C105.065 117.547 104.755 117.537 104.425 117.537C103.775 117.537 103.085 117.587 102.365 117.677C102.115 117.707 101.865 117.747 101.625 117.797C101.385 117.837 101.155 117.887 100.925 117.947C100.725 117.987 100.535 118.047 100.345 118.107C100.135 118.167 99.9349 118.237 99.7349 118.307L99.2849 118.487C99.0349 118.587 98.7949 118.707 98.5649 118.827C98.3949 118.917 98.2249 119.007 98.0649 119.107C97.9149 119.197 97.7649 119.287 97.6249 119.387C97.5849 119.407 97.5549 119.427 97.5349 119.447C97.3849 119.557 97.2349 119.657 97.0949 119.777C96.9349 119.897 96.7849 120.017 96.6449 120.147C96.3521 120.4 96.078 120.674 95.8249 120.967C95.5449 121.277 95.2849 121.607 95.0349 121.957C94.9449 122.087 94.8649 122.217 94.7749 122.357C94.6749 122.517 94.5749 122.687 94.4749 122.857C94.3949 122.987 94.3249 123.117 94.2549 123.257C94.1549 123.427 94.0649 123.607 93.9849 123.797C93.9849 123.807 93.9749 123.807 93.9749 123.817C93.8149 124.167 93.6649 124.527 93.5249 124.897C93.2549 125.627 93.0249 126.397 92.8449 127.197L92.8149 127.317C92.7249 127.707 92.6449 128.107 92.5849 128.507C92.5249 128.847 92.4749 129.197 92.4249 129.547C92.4149 129.667 92.3949 129.787 92.3849 129.897C92.3449 130.247 92.3149 130.597 92.2849 130.947C92.2749 130.997 92.2749 131.047 92.2749 131.097C92.2449 131.407 92.2249 131.727 92.2149 132.037C92.1949 132.367 92.1849 132.707 92.1849 133.037C92.1749 133.537 92.1749 134.037 92.1849 134.537C92.1849 134.787 92.1949 135.047 92.2049 135.297C92.2049 135.527 92.2149 135.767 92.2349 135.997C92.2449 136.297 92.2649 136.587 92.2849 136.877C92.3149 137.347 92.3549 137.807 92.3949 138.267L92.5149 139.427C92.5449 139.727 92.5849 140.017 92.6249 140.307L92.7449 141.227C92.7749 141.467 92.8149 141.697 92.8449 141.927C92.9249 142.467 93.0149 142.997 93.1049 143.507C94.2049 144.467 95.4049 145.287 96.6749 145.957C96.4649 145.357 96.3149 144.727 96.2749 144.057C95.9649 139.987 99.0249 136.437 103.095 136.137C103.755 136.087 104.395 136.127 105.015 136.247C105.195 136.277 105.365 136.317 105.535 136.367C105.645 136.397 105.765 136.427 105.875 136.467C105.945 136.478 106.013 136.502 106.075 136.537C106.285 136.597 106.485 136.677 106.685 136.777C106.735 136.787 106.775 136.807 106.825 136.837C106.935 136.897 107.045 136.947 107.145 137.007C107.345 137.107 107.545 137.227 107.735 137.357C107.875 137.437 108.015 137.537 108.145 137.647C108.325 137.777 108.495 137.927 108.665 138.087C108.975 138.367 109.255 138.677 109.505 139.007C109.585 139.107 109.655 139.207 109.725 139.307C109.915 139.567 110.085 139.847 110.225 140.147C110.285 140.257 110.335 140.377 110.385 140.487C110.435 140.567 110.475 140.657 110.505 140.747C110.555 140.887 110.615 141.037 110.655 141.177V141.187C110.685 141.237 110.695 141.277 110.705 141.327C110.715 141.327 110.725 141.347 110.715 141.367C110.834 141.773 110.921 142.187 110.975 142.607C111.005 142.727 111.015 142.847 111.025 142.967C111.135 144.517 110.765 145.987 110.025 147.237C111.558 146.764 113.021 146.088 114.375 145.227L114.555 143.867C114.655 143.007 114.755 142.137 114.835 141.247L114.925 140.227C115.095 138.337 115.195 136.417 115.195 134.537C115.195 134.227 115.195 133.917 115.185 133.607ZM108.345 134.917L108.135 135.037C107.995 135.117 107.865 135.187 107.745 135.257C107.555 135.367 107.395 135.457 107.265 135.527C106.975 135.317 106.525 134.977 105.985 134.537C105.435 134.077 104.805 133.517 104.205 132.897C104.085 132.767 103.965 132.647 103.845 132.517C103.725 132.387 103.615 132.247 103.495 132.117C103.385 131.987 103.275 131.847 103.165 131.707C103.045 131.567 102.945 131.417 102.845 131.277C102.745 131.137 102.645 130.997 102.555 130.847C102.365 130.557 102.205 130.257 102.065 129.957C102.005 129.827 101.955 129.697 101.905 129.557C101.855 129.437 101.825 129.307 101.785 129.187L101.755 129.047C101.725 128.917 101.705 128.787 101.685 128.657C101.665 128.517 101.655 128.377 101.655 128.247C101.655 127.417 101.985 126.627 102.795 125.917C105.085 123.917 107.105 125.917 107.845 126.847C108.705 126.027 110.975 124.307 112.985 126.597C113.575 127.277 113.825 127.977 113.825 128.657C113.825 128.787 113.815 128.917 113.795 129.047V129.117C113.785 129.257 113.745 129.397 113.705 129.537C113.665 129.677 113.615 129.817 113.555 129.957C113.412 130.308 113.227 130.64 113.005 130.947C112.665 131.447 112.245 131.917 111.775 132.357C111.655 132.477 111.515 132.597 111.385 132.717C110.805 133.237 110.165 133.717 109.575 134.117C109.435 134.217 109.285 134.317 109.145 134.407C109.075 134.457 109.015 134.497 108.945 134.537C108.735 134.677 108.545 134.797 108.355 134.917H108.345Z" fill="#1A162B" stroke="#1A162B" stroke-linecap="round" stroke-linejoin="round"/>
<path d="M110.025 147.237C110.785 145.945 111.13 144.451 111.015 142.957C110.869 141.001 109.953 139.184 108.468 137.903C106.983 136.622 105.051 135.984 103.095 136.127C101.139 136.273 99.3218 137.189 98.0411 138.674C96.7605 140.159 96.1217 142.091 96.2649 144.047C96.3149 144.717 96.4549 145.347 96.6649 145.947C99.1649 147.267 101.945 148.007 104.885 148.007C106.665 148.007 108.385 147.727 110.025 147.227V147.237ZM112.985 126.597C110.985 124.307 108.705 126.027 107.855 126.847C107.115 125.917 105.095 123.917 102.805 125.917C99.0349 129.217 105.705 134.387 107.275 135.527C108.965 134.617 116.295 130.377 112.995 126.607L112.985 126.597Z" fill="white" stroke="#1A162B" stroke-linecap="round" stroke-linejoin="round"/>
<path d="M112.645 105.607C114.215 103.817 115.015 101.397 114.755 99.0268C114.725 98.7568 114.545 98.5268 114.255 98.5268C114.005 98.5268 113.725 98.7568 113.755 99.0268C113.985 101.137 113.345 103.297 111.935 104.907C111.515 105.387 112.215 106.097 112.645 105.617V105.607ZM118.085 109.527C120.195 108.297 121.705 106.097 122.045 103.677C122.085 103.407 121.985 103.137 121.695 103.057C121.465 102.997 121.115 103.137 121.085 103.407C120.936 104.49 120.544 105.524 119.938 106.434C119.332 107.343 118.527 108.103 117.585 108.657C117.025 108.977 117.535 109.847 118.085 109.517V109.527ZM121.795 114.957C124.875 114.657 127.695 112.777 129.085 109.997C129.375 109.427 128.505 108.917 128.225 109.497C127.005 111.937 124.535 113.697 121.805 113.957C121.175 114.017 121.165 115.017 121.805 114.957H121.795Z" fill="#1A162B"/>
<path d="M67.8748 145.267C67.8748 150.637 63.5248 154.987 58.1548 154.987C52.7848 154.987 48.4348 150.637 48.4348 145.267C48.4348 139.897 52.7848 135.547 58.1548 135.547C63.5248 135.547 67.8748 139.897 67.8748 145.267Z" fill="#FFABDF" stroke="#1A162B" stroke-linecap="round" stroke-linejoin="round"/>
<path d="M127.318 151.749C128.546 146.524 125.306 141.291 120.08 140.063C114.854 138.834 109.622 142.075 108.393 147.3C107.165 152.526 110.405 157.758 115.631 158.987C120.857 160.215 126.089 156.975 127.318 151.749Z" fill="#FFABDF" stroke="#1A162B" stroke-linecap="round" stroke-linejoin="round"/>
<path d="M89.4149 97.5168V97.7468C89.4149 97.8168 89.4249 97.8768 89.4549 97.9368C89.4749 97.9968 89.5048 98.0568 89.5548 98.0968C89.6048 98.1468 89.6549 98.1768 89.7149 98.1968C89.7749 98.2268 89.8349 98.2468 89.9049 98.2368C90.0367 98.2349 90.1625 98.181 90.2549 98.0868C90.2849 98.0568 90.3048 98.0168 90.3348 97.9868C90.3848 97.9068 90.4049 97.8268 90.4049 97.7368V97.5068C90.4049 97.4368 90.3948 97.3768 90.3648 97.3168C90.3473 97.2551 90.3126 97.1996 90.2649 97.1568C90.2203 97.1112 90.1654 97.0769 90.1049 97.0568C90.0477 97.0228 89.9809 97.0087 89.9149 97.0168C89.783 97.0187 89.6572 97.0726 89.5649 97.1668C89.5349 97.1968 89.5149 97.2368 89.4849 97.2668C89.4349 97.3468 89.4149 97.4268 89.4149 97.5168ZM104.915 88.4068C105.555 88.4068 105.555 87.4068 104.915 87.4068C104.275 87.4068 104.275 88.4068 104.915 88.4068ZM81.7049 84.4168C82.3449 84.4168 82.3449 83.4168 81.7049 83.4168C81.0649 83.4168 81.0649 84.4168 81.7049 84.4168ZM59.9249 92.9768H59.5649C59.4949 92.9768 59.4349 92.9868 59.3749 93.0168C59.3149 93.0368 59.2548 93.0668 59.2148 93.1168C59.1648 93.1668 59.1348 93.2168 59.1148 93.2768C59.0848 93.3368 59.0649 93.3968 59.0749 93.4668C59.0767 93.5987 59.1307 93.7245 59.2249 93.8168C59.2549 93.8468 59.2949 93.8668 59.3249 93.8968C59.4049 93.9468 59.4849 93.9668 59.5749 93.9668H59.9349C60.0049 93.9668 60.0649 93.9568 60.1249 93.9268C60.1849 93.9068 60.2449 93.8768 60.2849 93.8268C60.3349 93.7768 60.3649 93.7268 60.3849 93.6668C60.4149 93.6068 60.4349 93.5468 60.4249 93.4768C60.423 93.3449 60.3691 93.2191 60.2748 93.1268C60.2448 93.0968 60.2049 93.0768 60.1749 93.0468C60.1002 92.9994 60.0133 92.975 59.9249 92.9768ZM47.1349 112.897L47.4948 112.717C47.5548 112.687 47.5949 112.647 47.6349 112.587C47.6749 112.537 47.7049 112.477 47.7249 112.417C47.7449 112.352 47.7449 112.282 47.7249 112.217C47.7249 112.149 47.704 112.082 47.6649 112.027C47.6349 111.997 47.6148 111.957 47.5848 111.927C47.5217 111.868 47.4467 111.824 47.3648 111.797C47.3248 111.797 47.2749 111.787 47.2349 111.777C47.1449 111.777 47.0649 111.797 46.9849 111.847L46.6249 112.027C46.5649 112.057 46.5149 112.097 46.4849 112.157C46.4441 112.207 46.4136 112.265 46.3949 112.327C46.3748 112.392 46.3748 112.462 46.3949 112.527C46.3949 112.597 46.4149 112.657 46.4549 112.717C46.4849 112.747 46.5049 112.787 46.5349 112.817C46.5949 112.877 46.6749 112.917 46.7549 112.947C46.7949 112.947 46.8449 112.957 46.8849 112.967C46.9749 112.967 47.0549 112.947 47.1349 112.897ZM41.8549 129.297H41.6749C41.6049 129.297 41.5449 129.307 41.4849 129.337C41.4249 129.357 41.3649 129.387 41.3249 129.437C41.2749 129.487 41.2449 129.537 41.2249 129.597C41.1949 129.657 41.1749 129.717 41.1849 129.787C41.1867 129.919 41.2406 130.044 41.3348 130.137C41.3648 130.167 41.4049 130.187 41.4349 130.217C41.5149 130.267 41.5949 130.287 41.6849 130.287H41.8648C41.9348 130.287 41.9948 130.277 42.0548 130.247C42.1148 130.227 42.1749 130.197 42.2149 130.147C42.2649 130.097 42.2949 130.047 42.3149 129.987C42.3449 129.927 42.3649 129.867 42.3549 129.797C42.353 129.665 42.2991 129.539 42.2049 129.447C42.1749 129.417 42.1349 129.397 42.1049 129.367C42.0302 129.319 41.9433 129.295 41.8549 129.297ZM43.2949 148.187C43.9349 148.187 43.9349 147.187 43.2949 147.187C42.6549 147.187 42.6549 148.187 43.2949 148.187ZM66.1849 158.737H66.3648C66.4348 158.737 66.4948 158.727 66.5548 158.697C66.6148 158.677 66.6748 158.647 66.7148 158.597C66.7648 158.547 66.7949 158.497 66.8149 158.437C66.8449 158.377 66.8649 158.317 66.8549 158.247C66.853 158.115 66.7991 157.989 66.7049 157.897C66.6749 157.867 66.6349 157.847 66.6049 157.817C66.5302 157.769 66.4433 157.745 66.3549 157.747H66.1749C66.1049 157.747 66.0449 157.757 65.9849 157.787C65.9249 157.807 65.8649 157.837 65.8249 157.887C65.7749 157.937 65.7449 157.987 65.7249 158.047C65.6949 158.107 65.6749 158.167 65.6849 158.237C65.6867 158.369 65.7406 158.494 65.8348 158.587C65.8648 158.617 65.9049 158.637 65.9349 158.667C66.0149 158.717 66.0949 158.737 66.1849 158.737ZM106.255 162.887L106.435 162.707C106.485 162.657 106.515 162.607 106.535 162.547C106.565 162.487 106.585 162.427 106.575 162.357C106.575 162.287 106.565 162.227 106.535 162.167C106.517 162.105 106.483 162.05 106.435 162.007C106.405 161.977 106.365 161.957 106.335 161.927C106.279 161.891 106.216 161.868 106.15 161.859C106.085 161.851 106.018 161.857 105.955 161.877C105.875 161.897 105.795 161.947 105.735 162.007L105.555 162.187C105.505 162.237 105.475 162.287 105.455 162.347C105.425 162.407 105.405 162.467 105.415 162.537C105.415 162.607 105.425 162.667 105.455 162.727C105.475 162.787 105.505 162.847 105.555 162.887C105.585 162.917 105.625 162.937 105.655 162.967C105.711 163.003 105.774 163.026 105.839 163.034C105.905 163.043 105.972 163.037 106.035 163.017C106.115 162.997 106.195 162.947 106.255 162.887ZM107.475 177.917V177.737C107.475 177.667 107.465 177.607 107.435 177.547C107.417 177.485 107.383 177.43 107.335 177.387C107.29 177.341 107.235 177.307 107.175 177.287C107.118 177.253 107.051 177.239 106.985 177.247C106.853 177.249 106.727 177.303 106.635 177.397C106.605 177.427 106.585 177.467 106.555 177.497C106.505 177.577 106.485 177.657 106.485 177.747V177.927C106.485 177.997 106.495 178.057 106.525 178.117C106.545 178.177 106.575 178.237 106.625 178.277C106.675 178.327 106.725 178.357 106.785 178.377C106.845 178.407 106.905 178.427 106.975 178.417C107.107 178.415 107.233 178.361 107.325 178.267C107.355 178.237 107.375 178.197 107.405 178.167C107.455 178.087 107.475 178.007 107.475 177.917ZM126.295 165.357H126.475C126.545 165.357 126.605 165.347 126.665 165.317C126.725 165.297 126.785 165.267 126.825 165.217C126.875 165.167 126.905 165.117 126.925 165.057C126.955 164.997 126.975 164.937 126.965 164.867C126.963 164.735 126.909 164.609 126.815 164.517C126.785 164.487 126.745 164.467 126.715 164.437C126.64 164.389 126.553 164.365 126.465 164.367H126.285C126.215 164.367 126.155 164.377 126.095 164.407C126.035 164.427 125.975 164.457 125.935 164.507C125.885 164.557 125.855 164.607 125.835 164.667C125.805 164.727 125.785 164.787 125.795 164.857C125.797 164.989 125.851 165.114 125.945 165.207C125.975 165.237 126.015 165.257 126.045 165.287C126.125 165.337 126.205 165.357 126.295 165.357ZM137.945 149.077C137.945 149.037 137.935 148.987 137.925 148.947V148.957C137.925 148.917 137.935 148.867 137.945 148.827V148.837C137.965 148.797 137.975 148.757 137.995 148.717C138.025 148.687 138.045 148.647 138.075 148.617C138.105 148.587 138.145 148.567 138.175 148.537H138.165C138.205 148.517 138.245 148.507 138.285 148.487H138.265C138.305 148.487 138.355 148.477 138.395 148.467H138.365C138.405 148.467 138.455 148.477 138.495 148.487H138.465L138.585 148.537H138.565C138.595 148.567 138.635 148.587 138.665 148.617C138.695 148.647 138.715 148.687 138.745 148.717C138.765 148.757 138.775 148.797 138.795 148.837V148.827C138.795 148.867 138.805 148.917 138.815 148.957V148.947C138.815 148.987 138.805 149.037 138.795 149.077C138.815 149.012 138.815 148.942 138.795 148.877C138.795 148.809 138.774 148.742 138.735 148.687C138.705 148.629 138.66 148.58 138.605 148.547C138.555 148.506 138.497 148.475 138.435 148.457C138.395 148.457 138.345 148.447 138.305 148.437C138.215 148.437 138.135 148.457 138.055 148.507C138.025 148.537 137.985 148.557 137.955 148.587C137.895 148.647 137.855 148.727 137.825 148.807C137.815 148.857 137.805 148.907 137.805 148.947C137.805 148.987 137.815 149.037 137.825 149.077C137.825 149.087 137.875 149.187 137.875 149.197C137.885 149.217 137.905 149.237 137.915 149.257C137.925 149.267 137.945 149.297 137.965 149.317C137.995 149.347 138.035 149.377 138.075 149.397H138.085C138.095 149.397 138.195 149.447 138.205 149.447H138.215C138.245 149.447 138.315 149.457 138.345 149.467C138.395 149.467 138.485 149.447 138.505 149.447C138.555 149.447 138.625 149.397 138.645 149.387C138.685 149.367 138.725 149.327 138.765 149.297C138.775 149.277 138.825 149.227 138.805 149.247C138.805 149.247 138.835 149.217 138.845 149.197C138.865 149.157 138.885 149.107 138.905 149.067C138.915 149.017 138.925 148.967 138.925 148.927C138.925 148.887 138.915 148.837 138.905 148.797C138.886 148.735 138.856 148.677 138.815 148.627C138.775 148.577 138.735 148.527 138.675 148.497C138.619 148.458 138.553 148.437 138.485 148.437C138.419 148.427 138.351 148.427 138.285 148.437C138.245 148.457 138.205 148.467 138.165 148.487C138.085 148.527 138.035 148.587 137.985 148.667C137.965 148.707 137.955 148.747 137.935 148.787C137.915 148.877 137.915 148.967 137.935 149.057L137.945 149.077ZM149.545 138.877C150.185 138.877 150.185 137.877 149.545 137.877C148.905 137.877 148.905 138.877 149.545 138.877ZM131.165 134.627V134.807C131.165 134.877 131.175 134.937 131.205 134.997C131.225 135.057 131.255 135.117 131.305 135.157C131.355 135.207 131.405 135.237 131.465 135.257C131.525 135.287 131.585 135.307 131.655 135.297C131.787 135.295 131.913 135.241 132.005 135.147C132.035 135.117 132.055 135.077 132.085 135.047C132.135 134.967 132.155 134.887 132.155 134.797V134.617C132.155 134.547 132.145 134.487 132.115 134.427C132.097 134.365 132.063 134.31 132.015 134.267C131.97 134.221 131.915 134.187 131.855 134.167C131.798 134.133 131.731 134.119 131.665 134.127C131.533 134.129 131.407 134.183 131.315 134.277C131.285 134.307 131.265 134.347 131.235 134.377C131.185 134.457 131.165 134.537 131.165 134.627ZM144.005 127.257C144.645 127.257 144.645 126.257 144.005 126.257C143.365 126.257 143.365 127.257 144.005 127.257ZM132.515 117.447V117.267C132.515 117.197 132.505 117.137 132.475 117.077C132.457 117.015 132.423 116.96 132.375 116.917C132.33 116.871 132.275 116.837 132.215 116.817C132.158 116.783 132.091 116.769 132.025 116.777C131.893 116.779 131.767 116.833 131.675 116.927C131.645 116.957 131.625 116.997 131.595 117.027C131.545 117.107 131.525 117.187 131.525 117.277V117.457C131.525 117.527 131.535 117.587 131.565 117.647C131.585 117.707 131.615 117.767 131.665 117.807C131.715 117.857 131.765 117.887 131.825 117.907C131.885 117.937 131.945 117.957 132.015 117.947C132.147 117.945 132.273 117.891 132.365 117.797C132.395 117.767 132.415 117.727 132.445 117.697C132.495 117.617 132.515 117.537 132.515 117.447ZM139.355 104.537C139.995 104.537 139.995 103.537 139.355 103.537C138.715 103.537 138.715 104.537 139.355 104.537ZM123.615 92.0168H123.795C123.865 92.0168 123.925 92.0068 123.985 91.9768C124.045 91.9568 124.105 91.9268 124.145 91.8768C124.195 91.8268 124.225 91.7768 124.245 91.7168C124.275 91.6568 124.295 91.5968 124.285 91.5268C124.283 91.3949 124.229 91.2691 124.135 91.1768C124.105 91.1468 124.065 91.1268 124.035 91.0968C123.96 91.0494 123.873 91.025 123.785 91.0268H123.605C123.535 91.0268 123.475 91.0368 123.415 91.0668C123.355 91.0868 123.295 91.1168 123.255 91.1668C123.205 91.2168 123.175 91.2668 123.155 91.3268C123.125 91.3868 123.105 91.4468 123.115 91.5168C123.117 91.6487 123.171 91.7745 123.265 91.8668C123.295 91.8968 123.335 91.9168 123.365 91.9468C123.445 91.9968 123.525 92.0168 123.615 92.0168Z" fill="#1A162B"/>
<path d="M119.855 182.017C124.225 179.547 128.055 176.107 131.005 172.057C134.255 167.607 136.135 162.297 139.535 157.937C141.545 155.357 144.185 153.907 146.925 153.667C149.655 153.427 152.485 154.397 154.875 156.667C166.545 167.737 160.425 192.157 151.845 203.207C150.125 205.417 148.165 207.427 146.055 209.257C145.355 209.857 138.875 214.077 138.925 214.397C138.925 214.397 136.705 199.327 131.405 189.767C129.315 185.997 124.845 180.647 119.875 182.037L119.855 182.017Z" fill="#FCDCF2" stroke="#1A162B" stroke-linecap="round" stroke-linejoin="round"/>
<path d="M134.515 181.367V181.617C134.515 181.687 134.525 181.747 134.555 181.807C134.575 181.867 134.605 181.927 134.655 181.967C134.705 182.017 134.755 182.047 134.815 182.067C134.875 182.097 134.935 182.117 135.005 182.107C135.137 182.105 135.263 182.051 135.355 181.957C135.385 181.927 135.405 181.887 135.435 181.857C135.485 181.777 135.505 181.697 135.505 181.607V181.357C135.505 181.287 135.495 181.227 135.465 181.167C135.447 181.105 135.413 181.05 135.365 181.007C135.32 180.961 135.265 180.927 135.205 180.907C135.148 180.873 135.081 180.859 135.015 180.867C134.883 180.869 134.757 180.923 134.665 181.017C134.635 181.047 134.615 181.087 134.585 181.117C134.535 181.197 134.515 181.277 134.515 181.367ZM147.525 198.137V197.887C147.525 197.817 147.515 197.757 147.485 197.697C147.467 197.635 147.433 197.58 147.385 197.537C147.34 197.491 147.285 197.457 147.225 197.437C147.168 197.403 147.101 197.389 147.035 197.397C146.903 197.399 146.777 197.453 146.685 197.547C146.655 197.577 146.635 197.617 146.605 197.647C146.555 197.727 146.535 197.807 146.535 197.897V198.147C146.535 198.217 146.545 198.277 146.575 198.337C146.595 198.397 146.625 198.457 146.675 198.497C146.725 198.547 146.775 198.577 146.835 198.597C146.895 198.627 146.955 198.647 147.025 198.637C147.157 198.635 147.283 198.581 147.375 198.487C147.405 198.457 147.425 198.417 147.455 198.387C147.505 198.307 147.525 198.227 147.525 198.137ZM146.275 182.617V182.367C146.275 182.297 146.265 182.237 146.235 182.177C146.217 182.115 146.183 182.06 146.135 182.017C146.09 181.971 146.035 181.937 145.975 181.917C145.918 181.883 145.851 181.869 145.785 181.877C145.653 181.879 145.527 181.933 145.435 182.027C145.405 182.057 145.385 182.097 145.355 182.127C145.305 182.207 145.285 182.287 145.285 182.377V182.627C145.285 182.697 145.295 182.757 145.325 182.817C145.345 182.877 145.375 182.937 145.425 182.977C145.475 183.027 145.525 183.057 145.585 183.077C145.645 183.107 145.705 183.127 145.775 183.117C145.907 183.115 146.033 183.061 146.125 182.967C146.155 182.937 146.175 182.897 146.205 182.867C146.255 182.787 146.275 182.707 146.275 182.617ZM156.035 172.857V172.607C156.035 172.537 156.025 172.477 155.995 172.417C155.977 172.355 155.943 172.3 155.895 172.257C155.85 172.211 155.795 172.177 155.735 172.157C155.678 172.123 155.611 172.109 155.545 172.117C155.413 172.119 155.287 172.173 155.195 172.267C155.165 172.297 155.145 172.337 155.115 172.367C155.065 172.447 155.045 172.527 155.045 172.617V172.867C155.045 172.937 155.055 172.997 155.085 173.057C155.105 173.117 155.135 173.177 155.185 173.217C155.235 173.267 155.285 173.297 155.345 173.317C155.405 173.347 155.465 173.367 155.535 173.357C155.667 173.355 155.793 173.301 155.885 173.207C155.915 173.177 155.935 173.137 155.965 173.107C156.015 173.027 156.035 172.947 156.035 172.857ZM145.525 167.347C146.165 167.347 146.165 166.347 145.525 166.347C144.885 166.347 144.885 167.347 145.525 167.347Z" fill="#1A162B"/>
<path d="M132.985 217.667C116.995 226.567 104.795 228.357 96.6649 227.967C96.6649 227.967 88.0449 227.877 86.2249 224.507C84.2449 220.847 88.4049 220.427 88.4049 220.427C84.0149 219.597 82.9449 218.007 83.2449 215.487C83.6649 211.907 88.7049 213.297 88.7049 213.297C86.5449 213.067 82.3849 212.877 81.7849 208.617C81.2149 204.577 87.8149 204.917 87.8149 204.917C87.8149 204.917 80.7049 204.267 81.7749 199.897C82.7749 195.807 86.5449 197.847 92.4949 197.247C98.4449 196.647 101.215 193.997 101.215 193.997C92.4449 187.657 99.3849 184.307 103.195 186.127C107.005 187.957 110.575 188.377 110.575 188.377C110.575 188.377 113.385 187.977 118.515 185.097C118.515 185.097 126.375 192.647 129.185 201.007C131.995 209.367 132.975 217.657 132.975 217.657L132.985 217.667Z" fill="white" stroke="#1A162B" stroke-linecap="round" stroke-linejoin="round"/>
<path d="M88.705 213.297C88.705 213.297 98.1049 214.597 104.445 211.467M88.4049 220.437C88.4049 220.437 99.355 222.467 105.645 219.907M87.8149 204.917C87.8149 204.917 96.3249 206.337 101.995 203.507" stroke="#1A162B" stroke-linecap="round" stroke-linejoin="round"/>
<path d="M124.845 181.017C123.365 180.027 119.925 177.707 116.465 179.237C110.475 181.887 112.405 187.897 112.405 187.897L116.685 186.207C116.685 186.207 122.115 190.737 126.045 199.197C130.485 208.757 130.275 219.207 130.275 219.207L124.875 221.787C124.875 221.787 127.665 225.927 133.135 224.107C138.835 222.217 140.255 217.367 139.535 208.187C138.915 200.367 131.655 185.547 124.845 181.007V181.017ZM217.785 236.647L199.425 218.747L153.975 229.047L170.555 248.357L217.785 236.647Z" fill="white" stroke="#1A162B" stroke-linecap="round" stroke-linejoin="round"/>
<path d="M180.895 235.127L170.555 248.357M217.785 236.647L191.555 231.657M199.425 218.747L187.835 236.697L153.975 229.047" stroke="#1A162B" stroke-linecap="round" stroke-linejoin="round"/>
<path d="M186.665 233.657C188.765 230.087 192.015 231.717 191.815 233.717C191.615 235.717 189.775 238.347 189.775 238.347C189.775 238.347 185.685 237.917 182.865 236.877C180.055 235.837 181.915 232.637 184.745 233.237C185.825 233.467 186.655 233.657 186.655 233.657H186.665Z" fill="#EA130D" stroke="#1A162B" stroke-linecap="round" stroke-linejoin="round"/>
<path d="M152.255 214.587L174.425 201.687L215.995 222.757L195.205 237.447L152.255 214.587Z" fill="white" stroke="#1A162B" stroke-linecap="round" stroke-linejoin="round"/>
<path d="M188.405 222.097L195.205 237.447M152.255 214.587L178.915 216.137M174.425 201.687L181.285 221.927L215.995 222.757" stroke="#1A162B" stroke-linecap="round" stroke-linejoin="round"/>
<path d="M183.165 219.267C182.005 215.287 178.455 216.087 178.155 218.067C177.855 220.057 179.005 223.057 179.005 223.057C179.005 223.057 183.075 223.637 186.065 223.317C189.045 222.997 188.025 219.437 185.125 219.327C184.025 219.287 183.165 219.267 183.165 219.267Z" fill="#EA130D" stroke="#1A162B" stroke-linecap="round" stroke-linejoin="round"/>
<path d="M250.495 162.587C250.495 162.587 257.395 155.867 248.015 148.607C238.635 141.357 226.605 139.407 214.045 142.587C201.485 145.767 195.815 156.387 198.115 170.187C200.415 183.987 205.015 191.067 205.015 191.067C205.015 191.067 238.985 196.727 262.525 193.187C286.055 189.647 292.785 177.617 283.405 168.947C274.025 160.277 256.865 161.337 250.495 162.577V162.587Z" fill="#FFABDF" stroke="#1A162B" stroke-linecap="round" stroke-linejoin="round"/>
<path d="M284.985 184.037C284.525 183.467 284.005 182.917 283.415 182.377C274.035 173.707 255.845 174.747 249.475 175.987L249.595 163.377C249.135 162.927 248.605 162.477 248.025 162.027C238.645 154.777 226.615 152.827 214.055 156.007C205.525 158.167 200.185 163.757 198.345 171.427" fill="#FFABDF"/>
<path d="M284.985 184.037C284.525 183.467 284.005 182.917 283.415 182.377C274.035 173.707 255.845 174.747 249.475 175.987L249.595 163.377C249.135 162.927 248.605 162.477 248.025 162.027C238.645 154.777 226.615 152.827 214.055 156.007C205.525 158.167 200.185 163.757 198.345 171.427" stroke="#1A162B" stroke-linecap="round" stroke-linejoin="round"/>
<path d="M234.455 162.007C234.455 163.877 230.555 165.387 225.755 165.387C220.955 165.387 217.055 163.877 217.055 162.007L218.805 154.087H232.695L234.445 162.007H234.455Z" fill="#E9130D" stroke="#1A162B" stroke-linecap="round" stroke-linejoin="round"/>
<path d="M232.705 154.087C232.705 155.737 229.595 157.077 225.755 157.077C221.915 157.077 218.805 155.737 218.805 154.087C218.805 152.437 221.915 151.097 225.755 151.097C229.595 151.097 232.705 152.437 232.705 154.087Z" fill="#CC0505" stroke="#1A162B" stroke-linecap="round" stroke-linejoin="round"/>
<path d="M276.175 181.777C276.175 183.647 272.275 185.157 267.475 185.157C262.675 185.157 258.775 183.647 258.775 181.777L260.525 173.857H274.415L276.165 181.777H276.175Z" fill="#E9130D" stroke="#1A162B" stroke-linecap="round" stroke-linejoin="round"/>
<path d="M274.425 173.847C274.425 175.497 271.315 176.837 267.475 176.837C263.635 176.837 260.525 175.497 260.525 173.847C260.525 172.197 263.635 170.857 267.475 170.857C271.315 170.857 274.425 172.197 274.425 173.847Z" fill="#CC0505" stroke="#1A162B" stroke-linecap="round" stroke-linejoin="round"/>
<path d="M234.455 194.847C234.455 196.717 230.555 198.227 225.755 198.227C220.955 198.227 217.055 196.717 217.055 194.847L218.805 186.927H232.695L234.445 194.847H234.455Z" fill="#E9130D" stroke="#1A162B" stroke-linecap="round" stroke-linejoin="round"/>
<path d="M225.755 189.917C229.593 189.917 232.705 188.578 232.705 186.927C232.705 185.275 229.593 183.937 225.755 183.937C221.917 183.937 218.805 185.275 218.805 186.927C218.805 188.578 221.917 189.917 225.755 189.917Z" fill="#CC0505" stroke="#1A162B" stroke-linecap="round" stroke-linejoin="round"/>
<path d="M259.065 196.967C259.065 198.837 255.165 200.347 250.365 200.347C245.565 200.347 241.665 198.837 241.665 196.967L243.415 189.047H257.305L259.055 196.967H259.065Z" fill="#E9130D" stroke="#1A162B" stroke-linecap="round" stroke-linejoin="round"/>
<path d="M257.305 189.037C257.305 190.687 254.195 192.027 250.355 192.027C246.515 192.027 243.405 190.687 243.405 189.037C243.405 187.387 246.515 186.047 250.355 186.047C254.195 186.047 257.305 187.387 257.305 189.037Z" fill="#CC0505" stroke="#1A162B" stroke-linecap="round" stroke-linejoin="round"/>
<path d="M250.365 177.617C250.365 179.487 246.465 180.997 241.665 180.997C236.865 180.997 232.965 179.487 232.965 177.617L234.715 169.697H248.605L250.355 177.617H250.365Z" fill="#E9130D" stroke="#1A162B" stroke-linecap="round" stroke-linejoin="round"/>
<path d="M248.605 169.697C248.605 171.347 245.495 172.687 241.655 172.687C237.815 172.687 234.705 171.347 234.705 169.697C234.705 168.047 237.815 166.707 241.655 166.707C245.495 166.707 248.605 168.047 248.605 169.697Z" fill="#CC0505" stroke="#1A162B" stroke-linecap="round" stroke-linejoin="round"/>
<path d="M222.425 177.617C222.425 179.487 218.525 180.997 213.725 180.997C208.925 180.997 205.025 179.487 205.025 177.617L206.775 169.697H220.665L222.415 177.617H222.425Z" fill="#E9130D" stroke="#1A162B" stroke-linecap="round" stroke-linejoin="round"/>
<path d="M220.675 169.697C220.675 171.347 217.565 172.687 213.725 172.687C209.885 172.687 206.775 171.347 206.775 169.697C206.775 168.047 209.885 166.707 213.725 166.707C217.565 166.707 220.675 168.047 220.675 169.697Z" fill="#CC0505" stroke="#1A162B" stroke-linecap="round" stroke-linejoin="round"/>
<path d="M197.695 162.267C197.515 164.757 197.655 167.417 198.125 170.197C200.425 183.997 205.025 191.077 205.025 191.077C205.025 191.077 238.995 196.737 262.535 193.197C279.555 190.637 287.785 183.637 287.485 176.687L287.135 194.337C285.385 200.287 277.245 205.817 262.535 208.027C239.005 211.567 205.025 205.907 205.025 205.907C205.025 205.907 200.425 198.827 198.125 185.027C197.675 182.317 197.465 164.687 197.625 162.257" fill="#FCDCF2"/>
<path d="M197.695 162.267C197.515 164.757 197.655 167.417 198.125 170.197C200.425 183.997 205.025 191.077 205.025 191.077C205.025 191.077 238.995 196.737 262.535 193.197C279.555 190.637 287.785 183.637 287.485 176.687L287.135 194.337C285.385 200.287 277.245 205.817 262.535 208.027C239.005 211.567 205.025 205.907 205.025 205.907C205.025 205.907 200.425 198.827 198.125 185.027C197.675 182.317 197.465 164.687 197.625 162.257" stroke="#1A162B" stroke-linecap="round" stroke-linejoin="round"/>
<path d="M205.025 191.077V205.907" stroke="#1A162B" stroke-linecap="round" stroke-linejoin="round"/>
</svg>
