<svg viewBox="0 0 24 24" fill="none" xmlns="http://www.w3.org/2000/svg"><path d="M11.72 23.08c-.18 0-.33-.13-.34-.31-.94-9.18-1.54-9.78-10.72-10.72a.345.345 0 0 1-.31-.34c0-.17.13-.33.31-.34 9.18-.94 9.78-1.54 10.72-10.72.02-.18.17-.31.34-.31.18 0 .33.13.34.31.94 9.18 1.54 9.78 10.72 10.72.18.02.31.17.31.34s-.13.33-.31.34c-9.18.94-9.78 1.54-10.72 10.72-.02.18-.17.31-.34.31" fill="#FEF8F8"/><path d="M11.72.69c.95 9.3 1.72 10.08 11.03 11.03-9.3.95-10.08 1.72-11.03 11.03C10.77 13.44 10 12.67.69 11.72 9.99 10.77 10.77 10 11.72.69m0-.69c-.35 0-.65.27-.69.62-.92 9-1.41 9.49-10.41 10.41a.694.694 0 0 0 0 1.38c9 .92 9.49 1.41 10.41 10.41a.694.694 0 0 0 1.38 0c.92-9 1.41-9.49 10.41-10.41a.694.694 0 0 0 0-1.38c-9-.92-9.49-1.41-10.41-10.41a.694.694 0 0 0-.69-.62" fill="#1B162A"/></svg>