<svg viewBox="0 0 16 16" fill="none" xmlns="http://www.w3.org/2000/svg">
<path d="M3.002 4.172c.236-.202.447-.445.711-.6.86-.502 1.787-.666 2.761-.398.556.153 1.021.47 1.416.887.108.114.166.124.28.006.843-.885 1.873-1.184 3.06-.93.776.167 1.463.515 1.955 1.152.212.274.342.61.51.917l-.014.068.031-.025.045.136c-.006-.002-.012-.004-.018-.004-.006 0-.015.006-.015.008l.065.44c-.046.101-.085.202.04.28v.193c-.066.216-.126.435-.197.65-.103.308-.193.622-.33.915-.104.227-.266.43-.411.637-.16.228-.316.46-.5.668-.15.17-.33.316-.508.46-.305.249-.618.488-.928.732l-.527-.073c-.01.005-.019.002-.025-.006l-.278-.071-.083-.025c-.077-.08-.15-.164-.231-.238-.023-.02-.082-.024-.11-.01-.206.106-.403.015-.603-.014.024-.06.053-.118.072-.18.077-.255-.085-.483-.342-.483-.135 0-.27.005-.403.007-.233.01-.467.018-.7.027h-.201l-.697-.028c-.064-.003-.13-.007-.194-.007-.556-.003-.652.123-.51.667-.186.03-.373.056-.558.092-.302.059-.603.125-.904.187-.256-.284-.58-.403-.956-.402-.063-.085.214-.146.028-.22a1.036 1.036 0 0 1-.603-.569c-.002-.005-.01-.009-.013-.014a4.926 4.926 0 0 1-.791-1.25l-.133-.3-.008-.098c.004-.044.02-.091.01-.13-.096-.328-.085-.657-.03-.988l.162-.942c-.003-.01 0-.018.01-.023l.162-.388c.126-.265.25-.532.5-.71l.026.022.011-.018-.033-.009v.002zm5.22 2.302c-.164.037-.24.175-.147.306.056.08.155.128.235.19l.057.146a1.25 1.25 0 0 0 1.8.65c.34-.19.532-.491.617-.867.168-.041.227-.15.192-.315.008-.057.031-.119.015-.168-.009-.027-.085-.046-.13-.046-.817-.006-1.634-.012-2.451-.009-.057 0-.114.071-.17.11l-.009.008-.01-.004zm-1.575.427c.14-.033.227-.114.203-.263-.023-.153-.15-.165-.272-.165-.78 0-1.559 0-2.338.002-.118 0-.25 0-.273.16-.023.15.058.233.198.266.101.204.168.435.31.605.328.396.779.506 1.264.38.502-.128.796-.48.908-.984m4.863-3.067c-.06.065-.139.117-.167.189-.05.127.03.21.147.257.405.163.738.42 1 .77.08.109.186.184.317.078.122-.099.095-.22.012-.33a2.532 2.532 0 0 0-.868-.757c-.133-.07-.271-.128-.44-.207zM10.246 4.94c.01-.114-.044-.202-.175-.193-.156.01-.32.02-.462.076-.302.12-.591.273-.89.402-.146.064-.216.152-.139.305.083.165.202.11.332.05.346-.161.672-.37 1.073-.396.107-.007.272-.046.262-.245zM5.878 3.67c-.175-.007-.28.029-.291.182-.01.146.067.212.209.228.363.043.7.161 1.001.374.108.076.224.096.313-.022.098-.13.038-.236-.075-.319a2.42 2.42 0 0 0-1.157-.443m-.466 1.767v.002c-.236 0-.474-.016-.707.009-.074.008-.179.117-.194.194-.02.107.059.191.194.19.477-.003.953.002 1.43-.002.141-.001.227-.148.146-.26a.336.336 0 0 0-.22-.127c-.215-.017-.432-.006-.649-.006zm5.145-1.365c.08.005.112.005.145.008.137.011.237-.04.247-.184.012-.153-.085-.222-.23-.228-.078-.004-.156-.003-.234-.004-.133-.002-.215.065-.221.194-.006.13.075.202.203.214.045.004.091 0 .09 0zm-5.832.13c.252-.004.423-.115.42-.266-.002-.144-.099-.193-.222-.196-.206-.004-.389.118-.389.254 0 .138.08.2.191.208z" fill="#EE405D"/><path d="M4.66 10.21c.302-.063.602-.128.904-.187.186-.036.373-.062.559-.092.186-.009.372-.012.558-.028.058-.005.114-.04.17-.063.153.018.306.047.459.05.148.003.223-.083.216-.238-.006-.117-.002-.235-.002-.353h.201v.373c0 .145.077.22.217.22.144 0 .287-.013.43-.021l.682.107.988.211.084.025.277.07c.007.01.015.012.025.007l1.28.494c.274.12.551.236.823.362.187.087.248.213.167.331-.098.143-.22.092-.347.03a29.05 29.05 0 0 0-.929-.425c-.067-.03-.15-.026-.226-.037-.246-.09-.492-.179-.739-.267l-.003.001-.084-.037-.057-.009-.147-.06c-.315-.076-.628-.185-.948-.219-.22-.023-.46-.139-.677.028-.074-.052-.145-.147-.221-.15a20.45 20.45 0 0 0-1.33-.026c-.109.001-.218.082-.327.125-.172-.018-.345-.059-.515-.05-.242.01-.483.05-.722.093-.137.024-.27.08-.404.12l-.095.078-.266-.463z" fill="#2E1F52"/><path d="m4.66 10.21.267.463-.002.365.005.113c-.234.552-.648.94-1.138 1.26-.026.018-.058.027-.087.04-.038-.043-.105-.083-.11-.13-.04-.32-.156-.63-.092-.966.042-.218.049-.436.198-.618.086-.104.057-.228-.038-.297-.102-.072-.208-.03-.279.083-.063.1-.125.201-.204.287-.03.031-.128.044-.16.02-.194-.151-.378-.315-.565-.476-.065-.056-.116-.116-.025-.193.224-.084.447-.167.67-.252.072-.028.141-.063.211-.095l-.001-.002.052.033.342-.038c.376 0 .7.119.956.403z" fill="#FBCC18"/><path d="M2.43 10.161c-.09.077-.04.137.025.193.187.16.372.325.566.476.031.025.13.011.159-.02.08-.086.142-.188.204-.287.071-.112.177-.155.279-.083.096.069.124.193.039.297-.15.182-.157.4-.199.618-.064.335.052.646.091.966.006.048.072.087.111.13-.008.038-.006.085-.027.113-.058.077-.115.182-.195.21-.119.04-.203-.05-.248-.168-.04-.107-.065-.258-.144-.3-.082-.044-.22.023-.336.034-.359.034-.703-.02-1.026-.187-.113-.058-.173-.144-.15-.27.057-.31.165-.6.392-.833.004.02.001.045.012.057.229.233.245.286.116.578-.07.16.046.194.14.21.197.033.392.083.597-.014.105-.05.239-.04.239-.203 0-.175.03-.355-.185-.454-.127-.057-.236-.158-.354-.237-.117-.078-.236-.153-.354-.23-.058-.082-.112-.17-.175-.249-.076-.094-.13-.205-.033-.295.061-.057.176-.066.27-.079.06-.008.125.017.187.027z" fill="#F5AD23"/><path d="m10.458 10.779.739.267c-.13.108-.252.225-.388.323-.693.497-1.418.94-2.183 1.32-.413.207-.78.207-1.195.002a16.106 16.106 0 0 1-2.278-1.392c-.075-.053-.152-.103-.228-.154 0-.008 0-.015.003-.02.18.077.374.133.535.239.356.232.703.482 1.041.741.133.102.308.08.438.207.055.054.246-.035.376-.057.034-.006.07-.007.104-.01-.005.031-.004.065-.017.091-.019.034-.05.06-.073.092-.018.024-.033.05-.05.075.03.01.06.03.088.028.137-.006.264-.002.313.164.005.017.043.025.066.037.286.14.519.07.704-.198.023-.033.107-.029.164-.034.074-.007.149-.003.223-.008.014-.001.026-.024.038-.037-.015-.007-.03-.016-.046-.02l-.15-.036c.043-.034.085-.07.128-.102.037-.028.082-.045.112-.077.08-.088.163-.15.292-.095.023.009.101-.045.099-.062-.021-.154.086-.121.165-.115.245.018.3-.018.379-.252.013-.038.053-.066.08-.098.026.024.051.05.078.072.029.026.076.076.088.069.096-.056.184-.122.275-.184-.012-.014-.021-.03-.035-.042-.038-.03-.079-.058-.117-.088.054-.003.11-.003.163-.012.058-.01.119-.019.17-.045.125-.066.247-.139.367-.215.038-.025.063-.07.094-.106-.051-.014-.106-.048-.153-.039-.278.057-.277.06-.41-.23zm1.25.007-1.28-.494.527.073c.168.07.331.155.505.206.082.025.21.02.27-.03.202-.161.381-.35.571-.526.254-.235.497-.478.68-.775.145-.236.294-.47.427-.713.067-.122.088-.27.155-.392.157-.288.297-.576.232-.919-.007-.034.02-.074.02-.112.006-.267.01-.535.014-.802v-.116c.004-.005.013-.01.012-.013-.002-.01-.008-.02-.012-.03V6.11l-.04-.28-.064-.439c0-.002.009-.007.014-.008.006-.001.013.002.019.004.07.343.192.684.204 1.029.054 1.555-.602 2.801-1.733 3.825-.136.123-.284.234-.416.36-.05.048-.071.124-.105.187v-.001z" fill="#D5375A"/><path d="M2.181 10.758c.118.076.238.151.355.23.118.078.227.178.354.236.215.098.185.28.185.454 0 .163-.134.152-.24.202-.204.098-.4.048-.596.014-.095-.016-.211-.05-.14-.21.129-.291.112-.344-.116-.577-.011-.012-.009-.038-.012-.057l.21-.293" fill="#FBCC18"/><path d="m3.705 9.807-.342.038a1.799 1.799 0 0 1-.053-.034l.002.003c-.026-.06-.038-.132-.079-.18a5.06 5.06 0 0 1-1.011-1.95c-.02-.073-.02-.152-.03-.228l.133.3c.2.457.466.872.79 1.25.005.004.012.008.014.014.12.276.321.456.603.569.186.074-.091.134-.028.219zm-1.378-4.51c-.054.314-.11.628-.162.942-.056.33-.066.66.029.988.011.039-.006.086-.01.13-.03-.275-.08-.55-.087-.825-.01-.425.043-.844.23-1.234zm.171-.41-.161.387.161-.387z" fill="#D5375A"/><path d="M4.928 11.124a.042.042 0 0 0-.003.02l.005.006-.005-.112c0 .028.002.057.004.086h-.001z" fill="#2E1F52"/><path d="m13.712 5.248-.03.026.013-.069.017.043z" fill="#D5375A"/><path d="M13.829 6.3c-.004.268-.008.536-.014.803 0 .038-.027.078-.02.113.064.343-.075.63-.232.918-.066.123-.088.27-.155.393-.133.242-.282.476-.427.712-.183.297-.427.54-.68.775-.19.176-.37.365-.57.526-.062.05-.19.055-.271.03-.174-.05-.338-.135-.505-.206.31-.244.623-.483.929-.732.177-.144.358-.29.508-.46.183-.208.34-.44.499-.668.145-.207.307-.41.412-.637.136-.293.226-.608.329-.915.072-.215.132-.434.197-.651z" fill="#DD304F"/><path d="M6.647 6.901c-.112.505-.406.856-.908.985-.485.125-.936.015-1.264-.38-.141-.17-.208-.401-.31-.605.148-.061.274-.015.36.106.277.394.759.389 1.023-.016.029-.045.08-.106.121-.106.326-.002.652.01.978.017V6.9zm4.137-.002c-.085.376-.277.677-.617.867a1.25 1.25 0 0 1-1.8-.65L8.31 6.97l.012-.077c.1.015.205-.034.288.1.258.42.793.41 1.072-.002.033-.047.093-.109.14-.109.32-.002.642.01.962.017z" fill="#F7F0F3"/><path d="M6.647 6.901c-.325-.007-.652-.018-.978-.016-.04 0-.091.06-.12.105-.266.406-.747.41-1.024.016-.086-.12-.211-.167-.36-.106-.14-.033-.22-.117-.198-.266.024-.16.155-.16.274-.16.779-.003 1.558-.003 2.337-.002.122 0 .25.012.273.164.023.15-.064.23-.203.264V6.9zm4.137-.002c-.32-.007-.641-.02-.961-.017-.048 0-.108.061-.14.11-.28.412-.815.421-1.073.001-.083-.134-.187-.085-.288-.1-.24-.12-.26-.209-.1-.419l.01.005.008-.008c.805.001 1.611 0 2.417.01.107.001.213.066.32.103.034.165-.025.273-.193.315z" fill="#2E1F52"/><path d="M11.51 3.834c.17.08.309.138.442.207.348.183.635.44.868.756.082.112.11.233-.012.332-.13.106-.236.03-.317-.078a2.294 2.294 0 0 0-1-.77c-.117-.047-.197-.13-.147-.258.028-.072.107-.124.167-.189z" fill="#F7F0F3"/><path d="M10.247 4.938c.01.2-.155.237-.262.245-.4.026-.727.234-1.073.395-.13.06-.248.116-.332-.05-.076-.152-.007-.24.14-.304.298-.13.587-.283.889-.402.142-.056.306-.065.462-.076.13-.009.184.079.175.193z" fill="#C72543"/><path d="M5.878 3.67c.394.047.8.182 1.157.444.113.084.173.19.075.318-.09.118-.205.099-.313.023a2.14 2.14 0 0 0-1.001-.374c-.142-.017-.22-.082-.21-.228.011-.154.117-.19.292-.183" fill="#F7F0F3"/><path d="M5.412 5.438c.216 0 .433-.011.649.006a.337.337 0 0 1 .22.126c.08.113-.005.259-.146.26-.477.004-.954 0-1.43.003-.136 0-.215-.084-.194-.19.015-.078.12-.187.194-.195.233-.025.47-.009.707-.009v-.001zm3.642 4.54-.682-.106.053-.6c.134-.002.269-.007.403-.007.258 0 .42.229.343.483-.019.062-.048.12-.072.18l-.045.051zm-2.202-.137c-.057.021-.113.058-.171.063-.186.015-.372.019-.558.027-.142-.544-.046-.67.51-.667.065 0 .13.005.194.007l.024.57z" fill="#C72543"/><path d="m6.852 9.84-.025-.569.697.029c0 .117-.003.235.002.353.007.155-.068.24-.216.238-.153-.004-.306-.033-.458-.05zm1.573-.568-.053.6c-.144.007-.287.02-.43.021-.14 0-.217-.076-.217-.22v-.374c.233-.01.466-.018.7-.027zm2.132-5.2s-.044.004-.09 0c-.129-.012-.21-.084-.203-.214.006-.13.09-.196.222-.194.078.002.156 0 .234.004.144.006.24.075.23.228-.011.144-.111.196-.248.184l-.144-.008zm-5.832.13c-.112-.008-.191-.07-.191-.207 0-.137.182-.258.389-.254.123.003.22.052.222.196.003.15-.168.262-.42.266z" fill="#F7F0F3"/><path d="M10.976 6.584c-.106-.036-.212-.102-.32-.103-.805-.01-1.611-.008-2.417-.01.057-.038.114-.11.171-.11.817-.003 1.634.003 2.451.01.046 0 .121.018.13.045.017.049-.007.111-.014.168zM9.053 9.98l.045-.05c.2.028.397.118.602.014.029-.015.087-.011.11.009.083.073.155.158.232.238l-.989-.211zm-.832-3.504c-.16.21-.139.299.1.419l-.011.076c-.08-.062-.18-.11-.235-.19-.092-.132-.018-.268.146-.305z" fill="#D5375A"/><path d="m13.789 5.828.04.28c-.126-.077-.087-.178-.04-.28z" fill="#DD304F"/><path d="m3.002 4.172.033.009-.01.018a2.244 2.244 0 0 0-.027-.022l.004-.005z" fill="#D5375A"/><path d="M13.829 6.142c.004.01.01.02.012.03 0 .003-.008.008-.012.013v-.043zm-8.901 4.982a4.76 4.76 0 0 0-.004-.086l.002-.365.096-.077c.134.07.271.134.402.21.304.173.59.387.91.52.362.152.749.248 1.131.337.171.04.36-.004.541.004.362.017.715-.021 1.058-.141.476-.166.895-.435 1.3-.728l.09-.018.003-.002c.133.29.132.287.41.23.046-.009.102.025.153.04-.031.035-.056.08-.094.105-.12.076-.242.149-.368.215-.05.026-.112.035-.17.045-.053.01-.108.009-.163.012.04.03.08.058.117.088.014.011.024.028.036.042-.091.062-.18.129-.275.184-.012.007-.059-.043-.088-.069-.027-.023-.052-.048-.078-.072-.027.032-.068.06-.08.098-.079.234-.134.27-.38.252-.078-.006-.185-.04-.164.115.002.017-.077.07-.099.062-.13-.054-.211.007-.292.095-.03.032-.076.05-.112.076-.044.033-.085.069-.128.103l.15.036c.016.004.03.013.046.02-.013.013-.025.036-.038.037-.074.005-.15 0-.223.008-.057.005-.141 0-.164.034-.185.267-.418.338-.704.198-.023-.012-.061-.02-.066-.037-.05-.165-.176-.17-.313-.164-.029.001-.058-.018-.087-.028.016-.025.03-.051.048-.075.024-.031.055-.058.073-.092.014-.026.013-.06.018-.09-.035.003-.07.003-.105.009-.13.022-.32.11-.375.057-.13-.128-.306-.105-.438-.207-.338-.26-.685-.509-1.041-.741-.162-.106-.356-.162-.535-.24zm.717.068c-.046-.034-.07-.067-.092-.065-.031.003-.06.03-.09.048.02.018.04.05.061.051.03.003.064-.016.121-.033zm4.981.005c-.079-.026-.105-.043-.13-.041-.034.003-.067.02-.1.032.025.014.048.037.073.04.033.002.068-.012.157-.031z" fill="#DD304F"/><path d="M10.364 10.798c-.405.293-.824.562-1.3.728-.343.12-.695.159-1.058.142-.18-.009-.37.035-.54-.004-.383-.09-.77-.186-1.131-.337-.32-.134-.606-.347-.91-.521-.132-.075-.268-.14-.403-.21.135-.04.267-.096.404-.12.24-.044.48-.083.722-.094.17-.008.343.032.514.05.114.16.21.328.424.387.378.106.747.114 1.12-.019.162-.057.292-.138.335-.317.217-.167.458-.051.677-.028.32.034.633.143.948.22l.147.059.057.01-.006.054z" fill="#EE405D"/><path d="M8.54 10.483c-.042.178-.172.26-.334.317-.373.133-.742.125-1.12.02-.214-.06-.31-.229-.424-.387.11-.044.218-.124.329-.126.443-.007.886.003 1.328.025.076.004.148.099.222.152v-.001z" fill="#F7F0F3"/><path d="M10.313 10.734zm.05.064.007-.054.084.037-.09.018z" fill="#D5375A"/><path d="M3.31 9.811z" fill="#AEA9D3"/><path d="M5.645 11.193c-.058.017-.09.035-.121.033-.022-.002-.041-.034-.061-.052.03-.017.06-.044.09-.047.021-.002.046.03.092.065zm4.981.004c-.09.019-.124.034-.157.03-.025-.001-.048-.025-.072-.039.033-.011.065-.03.098-.032.026-.003.052.015.131.041z" fill="#D5375A"/></svg>